<svg width="245" height="218" viewBox="0 0 245 218" fill="none" xmlns="http://www.w3.org/2000/svg">
<path d="M242.306 164.104C243.335 177.421 174.03 204.45 107.696 209.577C41.3614 214.703 3.11743 195.986 2.08823 182.669C1.05904 169.352 19.7128 154.125 86.0471 148.998C152.381 143.872 241.277 150.787 242.306 164.104Z" fill="url(#paint0_linear_3001_17406)"/>
<path d="M109.916 17.4845C112.461 15.6397 114.924 13.767 117.307 11.8636C115.682 7.71852 113.42 4.53791 110.518 2.32514C102.851 6.87708 95.2679 12.2712 87.7754 18.5085C88.2504 22.9901 90.5146 26.1692 94.563 28.0478C96.9566 26.5199 99.2928 24.9776 101.575 23.4205C104.448 21.4764 107.229 19.4989 109.916 17.4845Z" fill="url(#paint1_linear_3001_17406)"/>
<path d="M115.81 25.7638L109.918 17.485C107.231 19.4975 104.451 21.4761 101.576 23.4209L107.47 31.6982L115.81 25.7638Z" fill="#F5A428"/>
<path d="M151.124 14.1182C135.216 11.4661 120.709 14.816 107.612 24.1716C94.4982 33.4781 86.5679 46.0975 83.8216 62.0326C81.1848 77.9876 84.5408 92.5169 93.8955 105.616C103.202 118.729 115.793 126.64 131.665 129.351C147.622 131.992 162.156 128.658 175.27 119.353C188.368 109.998 196.268 97.3582 198.969 81.438C201.667 65.5173 198.364 51.0012 189.058 37.8876C179.702 24.7886 167.057 16.8652 151.124 14.1182ZM112.862 31.5327C123.959 23.6304 136.199 20.834 149.578 23.1475C163.037 25.3888 173.72 32.0577 181.624 43.1571C189.478 54.2674 192.28 66.5306 190.027 79.944C187.787 93.4043 181.118 104.086 170.017 111.99C158.904 119.844 146.637 122.623 133.21 120.323C119.764 118.13 109.112 111.477 101.255 100.364C93.3506 89.2658 90.5199 76.9841 92.7611 63.5247C95.0496 50.0527 101.749 39.3883 112.862 31.5327Z" fill="url(#paint2_linear_3001_17406)"/>
<path d="M149.579 23.1477C136.201 20.8343 123.962 23.6303 112.863 31.5329C101.751 39.3886 95.051 50.0529 92.7625 63.525C90.5216 76.9856 93.352 89.266 101.256 100.364C109.112 111.477 119.765 118.129 133.211 120.323C146.639 122.623 158.907 119.844 170.018 111.99C181.119 104.087 187.788 93.4046 190.028 79.9442C192.283 66.5305 189.479 54.2676 181.625 43.1574C173.721 32.0579 163.039 25.389 149.579 23.1477ZM115.333 35.0645C125.444 27.8333 136.644 25.2402 148.934 27.2866C161.236 29.379 171.003 35.4808 178.234 45.5911C185.431 55.7613 188.009 66.9918 185.962 79.2803C183.856 91.5354 177.749 101.28 167.64 108.51C157.469 115.709 146.215 118.29 133.878 116.258C121.637 114.199 111.916 108.085 104.721 97.9161C97.4884 87.8062 94.8657 76.5876 96.851 64.2636C99.0017 51.9952 105.164 42.2624 115.333 35.0645Z" fill="#E9E9E9"/>
<path d="M148.933 27.2861C136.644 25.241 125.444 27.8325 115.333 35.0641C105.163 42.2619 99.0026 51.9944 96.8502 64.2619C94.8641 76.5875 97.4877 87.8045 104.72 97.9144C111.915 108.084 121.637 114.198 133.877 116.256C146.214 118.288 157.468 115.707 167.639 108.509C177.749 101.279 183.855 91.5349 185.962 79.2785C188.008 66.9901 185.43 55.7595 178.234 45.5893C171.003 35.4804 161.234 29.3789 148.933 27.2861Z" fill="white"/>
<path d="M131.177 62.9759L141.556 71.5874L136.818 58.9619L118.753 39.5523L131.177 62.9759Z" fill="#5E6B74"/>
<path d="M141.938 72.6535L147.516 60.3707L148.467 33.8685L140.689 59.2227L141.938 72.6535Z" fill="#5E6B74"/>
<path d="M136.551 74.8316C137.464 76.1109 138.691 76.864 140.239 77.0905C141.745 77.3432 143.118 77.0289 144.357 76.147C145.637 75.2359 146.405 74.0259 146.66 72.5212C146.913 71.015 146.584 69.6224 145.674 68.3415C144.792 67.1012 143.582 66.3341 142.048 66.0426C140.542 65.7881 139.147 66.1147 137.868 67.0269C136.627 67.9096 135.88 69.105 135.629 70.6104C135.361 72.1852 135.669 73.5924 136.551 74.8316Z" fill="url(#paint3_linear_3001_17406)"/>
<path d="M221.864 158.044C223.882 151.567 223.882 145.073 221.864 138.569C216.641 130.214 207.861 127.913 195.517 131.662L209.154 156.157L221.864 158.044ZM128.227 156.229C123.007 147.868 114.224 145.565 101.881 149.321L115.517 173.816L128.227 175.703C130.235 169.213 130.235 162.72 128.227 156.229Z" fill="#DE921E"/>
<path d="M208.658 140.135C209.086 139.896 209.515 139.67 209.94 139.457C203.734 139.651 198.997 142.036 195.734 146.612C192.994 150.687 192.056 156.717 192.922 164.699C193.041 165.269 193.183 165.814 193.35 166.337C193.753 167.691 194.263 168.96 194.88 170.145C196.732 173.612 199.414 175.522 202.926 175.878C205.087 176.068 207.068 175.961 208.872 175.56C206.167 175.415 203.924 173.649 202.143 170.255C201.287 168.592 200.659 166.787 200.256 164.843C199.757 162.564 199.556 160.084 199.651 157.401C199.722 155.574 199.925 153.853 200.256 152.239C200.54 151.503 200.826 150.506 201.11 149.248C201.394 147.99 202.035 146.578 203.034 145.011C204.03 143.445 205.905 141.82 208.658 140.135ZM108.329 151.027C108.447 151.051 108.59 151.065 108.756 151.065C108.898 151.039 109.065 151.027 109.255 151.027L104.199 150.602C98.1283 151.519 93.3695 153.785 89.9228 157.401C86.4728 161.039 84.4068 164.741 83.7267 168.509C83.0762 172.279 83.0518 176.23 83.6555 180.365C83.9408 181.338 84.2499 182.265 84.5821 183.142C86.5045 188.601 88.6753 192.02 91.0965 193.396C92.095 193.99 93.0914 194.501 94.0885 194.926C95.9153 195.758 97.7421 196.352 99.5703 196.706C101.968 197.182 104.068 197.251 105.872 196.92C103.737 196.778 101.803 196.113 100.069 194.925C98.4802 193.881 97.0673 192.435 95.8323 190.583C94.2651 188.328 93.1382 185.812 92.4508 183.036C91.8564 180.661 91.5842 178.063 91.631 175.238C91.7022 170.419 92.6887 166.088 94.5861 162.242C95.1561 161.08 95.8086 159.965 96.544 158.895C97.6367 157.235 98.8117 155.858 100.069 154.766C102.513 152.464 105.268 151.219 108.329 151.027ZM31.7461 174.313C33.5031 177.994 35.7694 180.508 38.5459 181.86C41.3 183.189 44.0178 183.805 46.7 183.713C49.4053 183.593 51.7554 183.165 53.7503 182.431C55.6957 181.694 57.0012 180.97 57.6662 180.259C54.8897 179.879 51.8991 179.369 48.6936 178.728C42.3571 177.518 36.7072 176.045 31.7461 174.313Z" fill="#515151"/>
<path d="M105.873 197.048C103.717 196.905 101.743 196.228 99.9982 195.031C98.4027 193.983 96.9647 192.511 95.7284 190.656C94.1599 188.401 93.0172 185.847 92.3285 183.068C91.734 180.695 91.4572 178.061 91.5053 175.237C91.5765 170.423 92.5749 166.031 94.4743 162.189C95.0404 161.031 95.7007 159.9 96.4408 158.825C97.5348 157.161 98.7283 155.764 99.9877 154.672C102.438 152.363 105.244 151.094 108.323 150.9C108.467 150.925 108.601 150.938 108.758 150.938C108.885 150.913 109.057 150.9 109.257 150.9H109.862C113.904 151.07 117.387 153.269 120.221 157.437C123.333 161.998 124.693 167.628 124.265 174.179V174.314L124.194 175.391C123.649 181.374 121.675 186.523 118.328 190.699C114.979 194.914 111.078 197.05 106.731 197.05L105.873 197.048ZM110.614 157.635C107.499 157.635 104.692 159.248 102.274 162.427C101.453 163.459 100.752 164.589 100.187 165.787C99.0341 168.231 98.3322 171.008 98.0969 174.039C97.8616 176.879 98.1483 179.533 98.9457 181.928C99.2753 182.939 99.6917 183.926 100.183 184.863C100.347 185.167 100.524 185.459 100.711 185.74C102.698 188.942 105.296 190.587 108.439 190.635H108.44C111.555 190.635 114.337 189.046 116.774 185.912C118.935 183.188 120.292 179.926 120.808 176.217L121.021 174.3C121.349 169.748 120.493 165.797 118.476 162.56C116.422 159.315 113.824 157.659 110.75 157.634H110.614V157.635ZM208.867 175.688C206.125 175.542 203.825 173.733 202.032 170.314C201.177 168.65 200.538 166.821 200.133 164.87C199.634 162.591 199.43 160.076 199.525 157.397C199.597 155.573 199.801 153.829 200.133 152.213C200.42 151.466 200.706 150.466 200.987 149.22C201.274 147.956 201.927 146.516 202.928 144.943C203.932 143.367 205.838 141.713 208.594 140.027C209.027 139.784 209.456 139.558 209.885 139.345L210.654 139.331C213.522 139.404 215.86 141.249 217.606 144.814C219.292 148.308 220.064 152.543 219.897 157.408C219.872 157.5 219.862 157.559 219.862 157.618L219.885 157.653L219.862 157.837C219.578 162.722 218.445 166.958 216.499 170.425C214.683 173.605 212.481 175.363 209.957 175.651L208.874 175.689H208.867V175.688ZM211.597 144.927C209.73 144.927 208.05 146.211 206.599 148.742C206.435 149.024 206.282 149.318 206.142 149.623C204.944 151.996 204.253 154.841 204.09 158.082C203.994 160.036 204.102 161.871 204.407 163.538C204.643 164.946 205.058 166.251 205.642 167.419C206.826 170.021 208.381 171.349 210.264 171.373C212.104 171.373 213.793 170.1 215.281 167.591C216.781 164.988 217.627 161.833 217.791 158.214C218.002 154.525 217.49 151.383 216.271 148.805C215.019 146.278 213.464 144.973 211.649 144.928L211.597 144.801V144.927H211.597Z" fill="#747474"/>
<path d="M105.873 197.048C103.717 196.905 101.743 196.228 99.9982 195.031C98.4027 193.983 96.9647 192.511 95.7284 190.656C94.1599 188.401 93.0172 185.847 92.3285 183.068C91.734 180.695 91.4572 178.061 91.5053 175.237C91.5765 170.423 92.5749 166.031 94.4743 162.189C95.0404 161.031 95.7007 159.9 96.4408 158.825C97.5348 157.161 98.7283 155.764 99.9877 154.672C102.438 152.363 105.244 151.094 108.323 150.9C108.467 150.925 108.601 150.938 108.758 150.938C108.885 150.913 109.057 150.9 109.257 150.9H109.862C113.904 151.07 117.387 153.269 120.221 157.437C123.333 161.998 124.693 167.628 124.265 174.179V174.314L124.194 175.391C123.649 181.374 121.675 186.523 118.328 190.699C114.979 194.914 111.078 197.05 106.731 197.05L105.873 197.048ZM110.614 157.635C107.499 157.635 104.692 159.248 102.274 162.427C101.453 163.459 100.752 164.589 100.187 165.787C99.0341 168.231 98.3322 171.008 98.0969 174.039C97.8616 176.879 98.1483 179.533 98.9457 181.928C99.2753 182.939 99.6917 183.926 100.183 184.863C100.347 185.167 100.524 185.459 100.711 185.74C102.698 188.942 105.296 190.587 108.439 190.635H108.44C111.555 190.635 114.337 189.046 116.774 185.912C118.935 183.188 120.292 179.926 120.808 176.217L121.021 174.3C121.349 169.748 120.493 165.797 118.476 162.56C116.422 159.315 113.824 157.659 110.75 157.634H110.614V157.635ZM208.867 175.688C206.125 175.542 203.825 173.733 202.032 170.314C201.177 168.65 200.538 166.821 200.133 164.87C199.634 162.591 199.43 160.076 199.525 157.397C199.597 155.573 199.801 153.829 200.133 152.213C200.42 151.466 200.706 150.466 200.987 149.22C201.274 147.956 201.927 146.516 202.928 144.943C203.932 143.367 205.838 141.713 208.594 140.027C209.027 139.784 209.456 139.558 209.885 139.345L210.654 139.331C213.522 139.404 215.86 141.249 217.606 144.814C219.292 148.308 220.064 152.543 219.897 157.408C219.872 157.5 219.862 157.559 219.862 157.618L219.885 157.653L219.862 157.837C219.578 162.722 218.445 166.958 216.499 170.425C214.683 173.605 212.481 175.363 209.957 175.651L208.874 175.689H208.867V175.688ZM211.597 144.927C209.73 144.927 208.05 146.211 206.599 148.742C206.435 149.024 206.282 149.318 206.142 149.623C204.944 151.996 204.253 154.841 204.09 158.082C203.994 160.036 204.102 161.871 204.407 163.538C204.643 164.946 205.058 166.251 205.642 167.419C206.826 170.021 208.381 171.349 210.264 171.373C212.104 171.373 213.793 170.1 215.281 167.591C216.781 164.988 217.627 161.833 217.791 158.214C218.002 154.525 217.49 151.383 216.271 148.805C215.019 146.278 213.464 144.973 211.649 144.928L211.597 144.801V144.927H211.597Z" fill="#747474"/>
<path d="M219.731 157.83C219.683 157.758 219.683 157.685 219.731 157.616C219.731 157.544 219.744 157.472 219.767 157.401C219.934 152.537 219.173 148.357 217.488 144.869C215.755 141.331 213.477 139.53 210.651 139.457C210.415 139.457 210.177 139.457 209.94 139.457C209.515 139.67 209.085 139.896 208.658 140.135C205.905 141.819 204.03 143.445 203.034 145.011C202.035 146.578 201.395 147.99 201.11 149.248C200.825 150.506 200.54 151.503 200.256 152.239C199.924 153.852 199.722 155.574 199.651 157.401C199.555 160.084 199.758 162.564 200.256 164.843C200.659 166.787 201.287 168.592 202.143 170.255C203.923 173.649 206.167 175.415 208.872 175.56L209.939 175.522C212.432 175.238 214.58 173.517 216.384 170.361C218.331 166.896 219.447 162.718 219.731 157.83ZM217.916 158.15V158.221C217.75 161.876 216.907 165.021 215.388 167.655C213.869 170.218 212.16 171.5 210.261 171.5C208.315 171.477 206.737 170.137 205.525 167.477C204.932 166.29 204.516 164.986 204.279 163.56C203.971 161.876 203.865 160.048 203.959 158.077C204.126 154.802 204.813 151.965 206.024 149.569C206.167 149.26 206.322 148.964 206.487 148.678C207.982 146.066 209.703 144.773 211.649 144.799C213.525 144.847 215.103 146.163 216.385 148.749C217.619 151.36 218.129 154.494 217.916 158.15ZM108.756 151.066C108.59 151.066 108.447 151.052 108.329 151.028C105.267 151.22 102.513 152.465 100.068 154.767C98.8115 155.858 97.6365 157.236 96.5432 158.896C95.8084 159.965 95.1553 161.08 94.5852 162.243C92.6872 166.089 91.7013 170.42 91.6301 175.239C91.5834 178.063 91.8555 180.662 92.45 183.036C93.1373 185.813 94.2643 188.329 95.8314 190.584C97.0664 192.436 98.4794 193.882 100.068 194.926C101.802 196.113 103.736 196.778 105.871 196.921C106.085 196.921 106.286 196.921 106.477 196.921H106.512C110.927 196.991 114.831 194.89 118.226 190.618C121.573 186.443 123.518 181.362 124.064 175.381C124.088 175.026 124.113 174.669 124.137 174.313C124.137 174.264 124.137 174.217 124.137 174.171C124.563 167.62 123.222 162.065 120.113 157.507C117.288 153.354 113.871 151.195 109.859 151.027C109.645 151.027 109.444 151.027 109.254 151.027C109.065 151.028 108.898 151.04 108.756 151.066ZM102.17 162.35C104.662 159.075 107.522 157.462 110.749 157.508C113.883 157.533 116.494 159.194 118.584 162.495C120.623 165.769 121.479 169.711 121.145 174.314C121.074 174.955 121.004 175.596 120.932 176.237C120.41 179.987 119.058 183.239 116.874 185.992C114.381 189.196 111.569 190.788 108.436 190.764C105.23 190.716 102.621 189.066 100.603 185.814C100.413 185.529 100.234 185.232 100.068 184.924C99.5694 183.973 99.1556 182.99 98.8221 181.968C98.0148 179.548 97.7294 176.902 97.968 174.029C98.2046 170.968 98.9051 168.203 100.068 165.733C100.638 164.522 101.34 163.394 102.17 162.35Z" fill="#747474"/>
<path d="M217.915 158.22V158.149C218.128 154.493 217.619 151.359 216.384 148.749C215.102 146.163 213.524 144.847 211.648 144.799C209.703 144.774 207.981 146.066 206.486 148.678C206.32 148.964 206.166 149.26 206.023 149.569C204.812 151.965 204.125 154.802 203.958 158.077C203.864 160.048 203.97 161.876 204.277 163.56C204.515 164.985 204.931 166.29 205.524 167.478C206.736 170.137 208.313 171.477 210.259 171.5C212.159 171.5 213.868 170.218 215.387 167.655C216.907 165.021 217.75 161.875 217.915 158.22ZM110.749 157.507C107.521 157.46 104.662 159.074 102.169 162.349C101.339 163.393 100.638 164.521 100.069 165.73C98.906 168.201 98.2048 170.966 97.9682 174.026C97.7296 176.9 98.015 179.546 98.8223 181.966C99.1558 182.988 99.5696 183.972 100.069 184.922C100.234 185.23 100.413 185.526 100.603 185.812C102.621 189.063 105.231 190.713 108.436 190.762C111.569 190.785 114.381 189.193 116.874 185.99C119.058 183.236 120.411 179.985 120.933 176.234C121.005 175.593 121.075 174.952 121.145 174.312C121.479 169.708 120.624 165.767 118.584 162.493C116.494 159.194 113.883 157.532 110.749 157.507Z" fill="#E5E5E5"/>
<path d="M227.048 125.695C226.958 125.29 226.867 124.906 226.776 124.545C225.782 124.951 225.217 126.013 225.082 127.73C224.992 129.492 225.126 130.892 225.487 131.931C225.85 132.972 226.616 133.513 227.793 133.558C227.974 133.558 228.132 133.536 228.267 133.491C228.313 131.547 227.905 128.949 227.048 125.695Z" fill="#FC5A5A"/>
<path d="M20.8564 151.724C21.5339 151.906 21.8501 150.979 21.8049 148.945C21.7146 146.867 21.4888 144.651 21.1274 142.303C19.3207 144.063 18.3484 146.821 18.2129 150.571C19.2969 151.203 20.1777 151.587 20.8564 151.724ZM39.1567 169.956V162.092L19.6356 156.737L19.7034 164.126L39.1567 169.956ZM52.1021 158.23C55.807 158.634 59.5571 158.953 63.3537 159.179C67.6019 159.36 71.8715 159.382 76.1649 159.248C77.747 156.535 79.0781 153.69 80.1647 150.706C80.797 148.084 79.8485 146.707 77.3166 146.571C76.8198 146.437 74.6279 146.413 70.7423 146.503C69.9293 146.548 69.1602 146.616 68.4388 146.705C65.1842 146.934 61.8406 147.678 58.4066 148.944C54.8359 150.119 52.3291 152.173 50.8825 155.111C49.7973 157.01 50.2063 158.05 52.1021 158.23Z" fill="#FFF7EC"/>
<path d="M128.197 175.74C128.024 173.949 127.82 172.242 127.551 170.586C127.057 167.361 126.171 164.225 124.915 161.264C124.334 159.967 123.697 158.671 123.022 157.411C120.528 153.045 116.889 150.513 112.209 149.888C111.502 149.818 110.792 149.784 110.105 149.784C108.598 149.784 107.134 149.955 105.75 150.291C105.669 150.336 105.538 150.363 105.379 150.363C105.011 150.494 104.625 150.606 104.26 150.699C102.85 151.274 101.467 152.043 100.17 152.982C99.7155 153.256 99.2889 153.571 98.8912 153.923C97.1473 155.398 95.6066 157.256 94.3093 159.449C92.3457 159.616 90.6545 159.667 89.1753 159.667C88.6797 159.667 88.2067 159.66 87.7525 159.648C82.8782 159.602 80.5082 158.719 80.5082 156.943C80.5082 156.095 81.0916 154.785 82.291 152.94C83.3562 151.164 83.897 149.911 83.897 149.216C83.897 147.057 82.4491 145.792 79.4681 145.348C75.6628 145.17 72.9439 144.94 71.3982 144.669L71.2891 144.649V143.726C72.4772 142.757 73.7369 141.933 75.0831 141.17C77.1621 140.086 81.4128 138.578 87.7174 136.686C93.1864 135.149 97.2991 133.976 100.054 133.161C100.27 133.074 102.291 132.451 106.221 131.263C110.039 130.095 113.086 128.889 115.278 127.681C123.435 117.855 132.675 108.386 142.706 99.5697C146.999 96.0454 155.61 94.2588 168.301 94.2588C172.065 94.2588 176.256 94.4156 180.759 94.7242C182.361 95.1784 183.987 95.7731 185.616 96.4971C188.1 97.6262 190.729 99.113 193.431 100.915C198.026 103.977 202.959 108.042 208.09 112.996C210.321 114.644 211.887 115.688 212.733 116.088C213.533 116.445 214.438 116.761 215.421 117.028C216.438 117.25 217.227 117.363 217.759 117.363C218.895 117.499 220.216 117.613 221.698 117.703C222.815 117.886 223.703 118.261 224.351 118.818C225.24 119.614 226.073 121.475 226.9 124.511L226.931 124.624L226.823 124.668C225.884 125.052 225.342 126.085 225.211 127.74C225.122 129.474 225.255 130.872 225.609 131.887C225.954 132.88 226.67 133.382 227.796 133.426C227.956 133.426 228.103 133.405 228.224 133.366L228.397 133.307V134.168C228.31 135.21 228.181 136.257 228.013 137.289H228.874C229.599 137.636 230.009 138.121 230.155 138.747C230.202 138.988 230.203 139.773 230.157 141.152C230.067 142.47 229.931 144.097 229.751 146.04C229.525 147.976 229.319 149.417 229.138 150.325C228.546 154.832 226.137 157.424 221.979 158.02L221.61 158.021L221.761 156.522C221.805 153.928 221.669 151.473 221.356 149.232C221.267 148.604 221.154 147.974 221.018 147.344C220.574 145.795 219.898 144.369 219.006 143.121C218.338 142.233 217.548 141.42 216.658 140.708C215.282 139.647 213.852 139.11 212.403 139.11C211.621 139.11 210.814 139.267 210.01 139.578C209.571 139.796 209.144 140.022 208.738 140.246C206.023 141.895 203.917 144.27 202.49 147.304C202.087 148.247 201.679 149.218 201.273 150.212C200.955 150.849 200.662 151.55 200.393 152.306C199.805 153.889 199.196 155.584 198.564 157.391C197.343 161.101 196.028 163.518 194.657 164.569L128.308 175.858L128.197 175.74ZM132.491 130.847C132.491 131.152 132.625 131.987 132.893 133.33C133.26 135.22 133.494 135.382 133.537 135.395L134.867 135.392C135.443 135.392 135.867 134.977 136.165 134.125C136.344 133.458 136.5 132.804 136.636 132.172C137.799 131.672 139.626 131.079 142.148 130.311C143.686 129.564 144.928 128.708 145.819 127.772L171.17 124.971L165.331 100.137C165.331 100.137 157.72 100.063 157.557 100.063C156.108 100.063 154.641 100.246 153.2 100.609C151.012 101.188 148.859 102.184 146.801 103.571C144.791 104.911 142.791 106.66 140.859 108.77L122.106 130.335L132.491 129.139V130.847ZM213.017 123.794C212.019 123.794 211.139 124.191 210.401 124.972C209.661 125.798 209.285 126.748 209.285 127.795C209.285 128.888 209.661 129.862 210.403 130.691C211.14 131.47 212.02 131.869 213.017 131.869C214.056 131.869 214.936 131.473 215.63 130.691C216.374 129.861 216.749 128.887 216.749 127.795C216.749 126.749 216.374 125.799 215.63 124.97C214.937 124.19 214.057 123.794 213.017 123.794ZM173.398 124.739L203.276 121.457L191.155 106.326C189.508 104.41 187.697 102.938 185.777 101.955C183.76 100.826 181.611 100.255 179.384 100.255C179.144 100.255 178.901 100.261 178.659 100.275L167.498 100.206L173.398 124.739Z" fill="#FCA938"/>
<path d="M203.458 121.493L191.256 106.244C189.585 104.299 187.778 102.831 185.835 101.838C183.575 100.573 181.18 100.007 178.65 100.144L167.33 100.075L173.295 124.883L203.527 121.563L203.458 121.493ZM121.783 130.506L132.357 129.287C132.357 128.566 132.402 127.887 132.493 127.254C132.583 124.813 132.876 123.188 133.373 122.371C133.87 121.561 134.593 120.882 135.543 120.339C137.486 119.21 140.399 118.645 144.286 118.645C145.823 118.737 146.817 119.142 147.268 119.865C147.586 120.361 147.744 121.561 147.744 123.457C147.744 123.908 147.699 124.315 147.608 124.677C147.518 124.994 147.428 125.31 147.336 125.627C147.065 126.441 146.591 127.184 145.913 127.863L171.331 125.084L165.434 100.005L158.046 99.937C156.42 99.8919 154.793 100.071 153.167 100.479C150.951 101.066 148.804 102.06 146.726 103.46C144.693 104.815 142.705 106.557 140.761 108.679L121.783 130.506ZM28.3119 144.131C26.4137 143.229 25.3522 142.777 25.1251 142.777C24.267 142.685 23.7701 144.087 23.6346 146.98C23.454 149.871 25.0812 152.064 28.5152 153.553C31.9956 155 35.4973 155.902 39.0216 156.264C42.6362 156.626 45.1668 156.491 46.6147 155.856C48.5569 154.908 49.5731 152.83 49.6647 149.623C49.7086 148.583 49.4615 147.951 48.9182 147.723C48.3298 147.542 46.4779 147.408 43.3601 147.319C40.1972 147.182 37.373 146.842 34.8875 146.301C32.3557 145.714 30.1651 144.989 28.3119 144.131ZM101.515 98.3123C100.838 98.6284 100.204 98.922 99.6171 99.1943C99.2106 99.375 98.8493 99.5556 98.5331 99.735C96.8606 100.594 95.212 101.476 93.5848 102.38C85.8135 106.627 78.5152 111.19 71.6925 116.072C70.0652 117.291 68.4392 118.511 66.8119 119.73C66.5397 119.957 66.2235 120.206 65.8622 120.477C65.0943 121.063 64.3039 121.674 63.4896 122.307C67.1055 123.435 71.0363 124.385 75.2833 125.153C82.559 126.464 90.8283 127.301 100.09 127.663C104.88 127.843 109.964 127.889 115.34 127.796C123.566 117.901 132.716 108.525 142.792 99.6685C137.28 99.1717 131.721 98.8329 126.118 98.651C118.031 98.2897 109.83 98.1768 101.515 98.3123Z" fill="#737474"/>
<path d="M213.019 123.662C211.979 123.662 211.074 124.067 210.307 124.882C209.538 125.74 209.154 126.711 209.154 127.795C209.154 128.924 209.538 129.919 210.307 130.777C211.074 131.59 211.979 131.999 213.019 131.999C214.101 131.999 215.006 131.591 215.73 130.777C216.496 129.919 216.882 128.924 216.882 127.795C216.882 126.711 216.496 125.739 215.73 124.882C215.006 124.069 214.101 123.662 213.019 123.662Z" fill="#FFEAA8"/>
<path d="M132.356 129.288C132.356 129.785 132.356 130.306 132.356 130.846C132.356 131.162 132.492 131.999 132.762 133.354C133.034 134.756 133.282 135.477 133.508 135.524C133.735 135.524 134.187 135.524 134.864 135.524C135.497 135.524 135.971 135.073 136.287 134.169C136.469 133.49 136.626 132.835 136.763 132.201C137.847 131.796 139.655 131.208 142.184 130.44C143.766 129.674 145.009 128.814 145.913 127.865C146.59 127.187 147.065 126.443 147.336 125.63C147.427 125.312 147.517 124.996 147.608 124.68C147.698 124.318 147.743 123.912 147.743 123.459C147.743 121.562 147.585 120.364 147.268 119.867C146.816 119.144 145.822 118.739 144.285 118.647C140.399 118.647 137.485 119.212 135.542 120.341C134.592 120.886 133.869 121.563 133.373 122.374C132.876 123.189 132.582 124.814 132.492 127.257C132.401 127.888 132.356 128.567 132.356 129.288ZM71.6931 116.072C71.5576 115.394 71.3995 114.941 71.2175 114.715C70.9465 114.444 70.4045 114.308 69.5915 114.308C68.5514 114.308 67.7848 114.85 67.2868 115.934C66.9706 116.793 66.8125 117.832 66.8125 119.051C66.8125 119.277 66.8125 119.503 66.8125 119.729C68.4398 118.509 70.0658 117.29 71.6931 116.072Z" fill="#F59828"/>
<path d="M63.0174 122.713C62.4742 122.895 61.9547 123.052 61.4579 123.19C50.1159 126.984 38.9095 131.142 27.8385 135.658C27.7494 135.705 27.6804 135.75 27.6352 135.794C27.3191 135.976 27.0255 136.134 26.7557 136.268C24.4045 137.715 22.5301 139.725 21.1299 142.303C21.4912 144.652 21.7171 146.867 21.8074 148.945C21.8526 150.979 21.5364 151.905 20.8589 151.724C20.1801 151.589 19.2994 151.203 18.2154 150.571C18.125 150.979 18.056 151.407 18.0121 151.858C17.9218 151.858 17.854 151.905 17.8089 151.994C17.312 152.22 16.7914 152.513 16.2493 152.875C15.9332 153.1 15.6848 153.596 15.5041 154.368C15.277 155.09 15.1189 156.084 15.0286 157.349C14.8943 159.337 15.2331 161.394 16.0448 163.518C16.2268 163.968 16.43 164.466 16.6546 165.008C17.9205 167.585 21.5126 170.115 27.432 172.6C28.8334 173.187 30.2788 173.754 31.7705 174.296C36.6963 176.059 42.3447 177.527 48.7158 178.701C51.9239 179.379 54.9074 179.898 57.6626 180.261C62.3625 180.982 66.4526 181.344 69.9305 181.344C75.5802 181.389 80.1659 181.073 83.6914 180.395C83.8257 180.351 83.9624 180.327 84.0967 180.327C84.4141 180.237 84.7303 180.171 85.0465 180.125C86.808 179.311 88.572 175.561 90.3335 168.873C90.9207 166.477 91.6672 164.332 92.5706 162.432C92.8416 161.892 93.0887 161.394 93.3158 160.941C93.5868 160.399 93.8804 159.881 94.1978 159.384C91.7124 159.518 89.5657 159.563 87.7578 159.518C83.0139 159.473 80.6402 158.615 80.6402 156.943C80.6402 156.13 81.2286 154.819 82.4017 153.011C83.4869 151.203 84.029 149.939 84.029 149.216C84.029 147.002 82.5158 145.669 79.4884 145.218C75.6479 145.036 72.9592 144.808 71.4223 144.539V143.726C72.5515 142.868 73.7948 142.053 75.1498 141.285C77.2275 140.201 81.4306 138.711 87.7578 136.813C93.2255 135.274 97.3369 134.103 100.093 133.288C100.32 133.197 102.376 132.564 106.261 131.389C110.102 130.214 113.13 129.018 115.344 127.797C109.967 127.888 104.884 127.842 100.093 127.664C90.8304 127.301 82.561 126.464 75.2866 125.153C71.0384 124.387 67.1076 123.437 63.4929 122.308C63.3549 122.397 63.1968 122.534 63.0174 122.713ZM63.3549 159.179C59.5596 158.953 55.8082 158.635 52.1033 158.231C50.2063 158.049 49.7985 157.009 50.8825 155.113C52.3291 152.175 54.8359 150.121 58.4066 148.945C61.8406 147.679 65.1842 146.934 68.4387 146.707C69.1602 146.618 69.9293 146.55 70.7423 146.505C74.6292 146.414 76.821 146.437 77.3166 146.573C79.8485 146.708 80.797 148.086 80.1646 150.708C79.0794 153.691 77.7469 156.537 76.1648 159.249C71.8727 159.382 67.6032 159.36 63.3549 159.179ZM25.1259 142.777C25.353 142.777 26.4145 143.229 28.3127 144.131C30.1658 144.99 32.3565 145.714 34.8871 146.302C37.3713 146.844 40.1955 147.182 43.3597 147.319C46.4762 147.408 48.3293 147.544 48.9178 147.723C49.461 147.951 49.7082 148.582 49.6643 149.624C49.5739 152.831 48.5564 154.908 46.6142 155.857C45.1676 156.492 42.6358 156.626 39.0211 156.265C35.4968 155.902 31.9951 155 28.5147 153.553C25.082 152.063 23.4548 149.87 23.6342 146.98C23.7709 144.087 24.269 142.686 25.1259 142.777ZM39.1579 162.092V169.957L19.7046 164.126L19.6369 156.738L39.1579 162.092ZM110.734 95.6014C107.208 96.3705 104.137 97.2738 101.516 98.3127C109.831 98.1772 118.032 98.2901 126.12 98.6514C131.723 98.8321 137.281 99.1721 142.794 99.669C148.353 95.1058 161.005 93.5011 180.752 94.8561C178.447 94.1786 176.233 93.7495 174.109 93.5689C163.444 92.9817 147.629 92.9365 126.663 93.4334C120.608 93.8838 115.297 94.6065 110.734 95.6014Z" fill="url(#paint4_linear_3001_17406)"/>
<path d="M107.686 122.308C110.668 122.713 112.429 124.997 112.973 129.154C112.973 124.997 115.323 122.829 120.022 122.647C115.457 122.601 113.042 119.461 112.769 113.225C112.408 118.829 110.713 121.858 107.686 122.308Z" fill="white"/>
<defs>
<linearGradient id="paint0_linear_3001_17406" x1="132.5" y1="218" x2="133.5" y2="149.5" gradientUnits="userSpaceOnUse">
<stop stop-color="#A4A39D"/>
<stop offset="1" stop-color="#3E3E3B"/>
</linearGradient>
<linearGradient id="paint1_linear_3001_17406" x1="87.7754" y1="15.1875" x2="108.841" y2="0.194905" gradientUnits="userSpaceOnUse">
<stop offset="0.1546" stop-color="#F5C528"/>
<stop offset="0.407" stop-color="#F7BB20"/>
<stop offset="0.8409" stop-color="#FD9F0A"/>
<stop offset="1" stop-color="#FF9300"/>
</linearGradient>
<linearGradient id="paint2_linear_3001_17406" x1="112.367" y1="-13.4575" x2="177.361" y2="83.4937" gradientUnits="userSpaceOnUse">
<stop offset="0.1546" stop-color="#F5C528"/>
<stop offset="0.407" stop-color="#F7BB20"/>
<stop offset="0.8409" stop-color="#FD9F0A"/>
<stop offset="1" stop-color="#FF9300"/>
</linearGradient>
<linearGradient id="paint3_linear_3001_17406" x1="143.099" y1="57.7138" x2="157.993" y2="86.4475" gradientUnits="userSpaceOnUse">
<stop offset="0.1546" stop-color="#F5C528"/>
<stop offset="0.407" stop-color="#F7BB20"/>
<stop offset="0.8409" stop-color="#FD9F0A"/>
<stop offset="1" stop-color="#FF9300"/>
</linearGradient>
<linearGradient id="paint4_linear_3001_17406" x1="109.299" y1="81.2553" x2="71.7495" y2="226.923" gradientUnits="userSpaceOnUse">
<stop offset="0.1546" stop-color="#F5C528"/>
<stop offset="0.407" stop-color="#F7BB20"/>
<stop offset="0.8409" stop-color="#FD9F0A"/>
<stop offset="1" stop-color="#FF9300"/>
</linearGradient>
</defs>
</svg>
