<svg width="360" height="260" viewBox="0 0 360 260" fill="none" xmlns="http://www.w3.org/2000/svg">
<path d="M254.719 45.7361C259.373 45.7361 337.694 46.2514 342.616 46.0949C342.97 46.085 343.16 45.5645 342.808 45.3903C339.705 43.8537 336.186 44.1621 332.962 43.0758C331.064 42.4367 329.899 41.196 328.583 39.7733C327.445 38.5429 326.127 37.6002 324.507 37.1124C323.074 36.6829 321.525 36.6273 320.07 36.9736C318.481 37.3527 317.101 38.2621 315.585 38.8357C311.822 40.2558 308.166 38.9064 305.48 36.1218C303.264 33.8276 301.086 31.6623 298.074 30.4263C295.553 29.3904 292.753 29.1757 290.228 30.3176C287.355 31.6191 285.385 34.2368 282.686 35.8109C279.487 37.6808 275.661 37.2383 272.129 37.8019C268.586 38.3677 265.883 41.3421 262.785 43.055C261.726 43.6415 260.642 44.1314 259.406 44.1012C258.714 44.0835 258.034 43.8963 257.349 43.8105C256.283 43.679 255.27 43.7097 254.552 44.5989C254.378 44.8162 254.413 45.7361 254.719 45.7361Z" fill="#EBEBEB"/>
<path d="M17.2018 37.5536C20.6 37.5536 77.7818 37.9301 81.3755 37.8157C81.634 37.8084 81.7723 37.4283 81.5159 37.3009C79.2503 36.1792 76.6805 36.4044 74.3269 35.6109C72.9417 35.1444 72.091 34.2386 71.13 33.1996C70.3001 32.3011 69.337 31.6131 68.154 31.2569C67.1083 30.9434 65.9773 30.9028 64.9144 31.1555C63.7543 31.4322 62.7465 32.0962 61.64 32.5153C58.8928 33.5522 56.2237 32.5668 54.2628 30.5341C52.645 28.8592 51.0544 27.2779 48.8558 26.3757C47.0145 25.6191 44.9709 25.4626 43.1275 26.2961C41.0298 27.2462 39.591 29.1577 37.6207 30.3069C35.2854 31.6719 32.4919 31.349 29.9132 31.7608C27.3268 32.1742 25.3528 34.3452 23.0913 35.5963C22.3186 36.0243 21.5272 36.382 20.625 36.3602C20.1196 36.3472 19.623 36.211 19.1232 36.148C18.3448 36.0524 17.6048 36.0742 17.0812 36.7237C16.9528 36.8823 16.9788 37.5536 17.2018 37.5536Z" fill="#EBEBEB"/>
<path d="M41.3346 90.3642C44.7328 90.3642 101.915 90.7406 105.508 90.6262C105.767 90.619 105.905 90.2388 105.649 90.1114C103.383 88.9898 100.813 89.215 98.4598 88.4214C97.0745 87.9545 96.2238 87.0486 95.2628 86.0102C94.4329 85.1116 93.4698 84.4237 92.2874 84.0675C91.2411 83.7539 90.1106 83.7134 89.0478 83.9661C87.8876 84.2427 86.8799 84.9068 85.7733 85.3259C83.0262 86.3628 80.357 85.3774 78.3956 83.3447C76.7778 81.6698 75.1877 80.0884 72.9886 79.1862C71.1478 78.4296 69.1037 78.2731 67.2603 79.1067C65.1626 80.0567 63.7238 81.9682 61.7535 83.1174C59.4176 84.4824 56.6247 84.1595 54.046 84.5714C51.4596 84.9848 49.4856 87.1558 47.2242 88.4069C46.4509 88.8348 45.66 89.1926 44.7578 89.1708C44.2524 89.1578 43.7563 89.0215 43.256 88.9586C42.4776 88.8629 41.7376 88.8848 41.214 89.5342C41.0856 89.6928 41.1116 90.3642 41.3346 90.3642Z" fill="#EBEBEB"/>
<path d="M255.296 84.3148C258.694 84.3148 315.876 84.6913 319.469 84.5769C319.728 84.5696 319.866 84.1895 319.61 84.0621C317.344 82.9404 314.774 83.1656 312.421 82.3721C311.036 81.9051 310.185 80.9993 309.224 79.9608C308.394 79.0623 307.431 78.3743 306.248 78.0181C305.202 77.7046 304.072 77.664 303.009 77.9167C301.848 78.1934 300.841 78.8579 299.734 79.2765C296.988 80.3134 294.318 79.328 292.357 77.2953C290.739 75.6204 289.149 74.0391 286.95 73.1374C285.109 72.3808 283.065 72.2243 281.222 73.0578C279.124 74.0079 277.685 75.9194 275.715 77.0686C273.379 78.4336 270.586 78.1107 268.007 78.5225C265.421 78.9359 263.447 81.1069 261.185 82.358C260.412 82.786 259.621 83.1438 258.718 83.1219C258.213 83.1089 257.717 82.9727 257.217 82.9098C256.438 82.8141 255.698 82.8359 255.175 83.4854C255.047 83.6435 255.073 84.3148 255.296 84.3148Z" fill="#EBEBEB"/>
<path d="M84.7383 51.8851C84.8043 52.0764 174.864 51.8851 173.727 51.8851C173.21 51.8851 174.514 51.1097 174.007 50.8601C171.075 49.4052 167.868 49.3651 164.675 49.0708C162.813 48.9018 160.899 48.6299 159.223 47.7485C157.526 46.8593 156.468 45.3164 155.263 43.8911C151.541 39.4716 145.619 37.168 139.884 38.0645C133.481 39.0676 128.433 43.9462 122.019 44.8427C118.165 45.383 114.52 43.8911 110.755 43.3659C107.654 42.9359 105.071 43.5385 102.298 44.9124C100.266 45.9191 98.3888 46.7677 96.0925 46.9258C94.3292 47.0506 92.558 46.8489 90.7911 46.8301C87.9623 46.8047 85.1699 48.0298 82.9916 49.9475C82.7046 50.2008 81.7982 51.8851 84.7383 51.8851Z" fill="#EBEBEB"/>
<path d="M94.8166 222.076H125.152L125.152 63.0581H94.8166L94.8166 222.076Z" fill="#DBDBDB"/>
<path d="M114.547 74.2969H120.443V68.2254H114.547V74.2969Z" fill="#EBEBEB"/>
<path d="M107.004 74.2969H112.9V68.2254H107.004V74.2969Z" fill="#EBEBEB"/>
<path d="M114.547 84.6055H120.443V78.5334H114.547V84.6055Z" fill="#EBEBEB"/>
<path d="M107.004 84.6055H112.9V78.5334H107.004V84.6055Z" fill="#EBEBEB"/>
<path d="M114.547 94.9141H120.443V88.842H114.547V94.9141Z" fill="#EBEBEB"/>
<path d="M107.004 94.9141H112.9V88.842H107.004V94.9141Z" fill="#EBEBEB"/>
<path d="M114.547 105.223H120.443V99.1506H114.547V105.223Z" fill="#EBEBEB"/>
<path d="M107.004 105.223H112.9V99.1506H107.004V105.223Z" fill="#EBEBEB"/>
<path d="M114.547 115.531H120.443V109.459H114.547V115.531Z" fill="#EBEBEB"/>
<path d="M107.004 115.531H112.9V109.459H107.004V115.531Z" fill="#EBEBEB"/>
<path d="M114.547 125.84H120.443V119.768H114.547V125.84Z" fill="#EBEBEB"/>
<path d="M107.004 125.84H112.9V119.768H107.004V125.84Z" fill="#EBEBEB"/>
<path d="M114.547 136.148H120.443V130.077H114.547V136.148Z" fill="#EBEBEB"/>
<path d="M107.004 136.148H112.9V130.077H107.004V136.148Z" fill="#EBEBEB"/>
<path d="M114.547 146.457H120.443V140.385H114.547V146.457Z" fill="#EBEBEB"/>
<path d="M107.004 146.457H112.9V140.385H107.004V146.457Z" fill="#EBEBEB"/>
<path d="M114.547 156.766H120.443V150.694H114.547V156.766Z" fill="#EBEBEB"/>
<path d="M107.004 156.766H112.9V150.694H107.004V156.766Z" fill="#EBEBEB"/>
<path d="M114.547 167.074H120.443V161.002H114.547V167.074Z" fill="#EBEBEB"/>
<path d="M107.004 167.074H112.9V161.002H107.004V167.074Z" fill="#EBEBEB"/>
<path d="M114.547 177.383H120.443V171.311H114.547V177.383Z" fill="#EBEBEB"/>
<path d="M107.004 177.383H112.9V171.311H107.004V177.383Z" fill="#EBEBEB"/>
<path d="M114.547 187.691H120.443V181.619H114.547V187.691Z" fill="#EBEBEB"/>
<path d="M107.004 187.691H112.9V181.619H107.004V187.691Z" fill="#EBEBEB"/>
<path d="M114.547 198H120.443V191.928H114.547V198Z" fill="#EBEBEB"/>
<path d="M107.004 198H112.9V191.928H107.004V198Z" fill="#EBEBEB"/>
<path d="M114.547 208.309H120.443V202.237H114.547V208.309Z" fill="#EBEBEB"/>
<path d="M105.422 202.236H99.5254V208.308H105.422V202.236Z" fill="#EBEBEB"/>
<path d="M105.422 191.928H99.5254V198H105.422V191.928Z" fill="#EBEBEB"/>
<path d="M105.422 181.619H99.5254V187.691H105.422V181.619Z" fill="#EBEBEB"/>
<path d="M105.422 171.311H99.5254V177.383H105.422V171.311Z" fill="#EBEBEB"/>
<path d="M105.422 161.002H99.5254V167.074H105.422V161.002Z" fill="#EBEBEB"/>
<path d="M105.422 150.693H99.5254V156.765H105.422V150.693Z" fill="#EBEBEB"/>
<path d="M105.422 140.385H99.5254V146.457H105.422V140.385Z" fill="#EBEBEB"/>
<path d="M105.422 130.076H99.5254V136.148H105.422V130.076Z" fill="#EBEBEB"/>
<path d="M105.422 119.768H99.5254V125.84H105.422V119.768Z" fill="#EBEBEB"/>
<path d="M105.422 109.459H99.5254V115.531H105.422V109.459Z" fill="#EBEBEB"/>
<path d="M105.422 99.1504H99.5254V105.222H105.422V99.1504Z" fill="#EBEBEB"/>
<path d="M105.422 88.8418H99.5254V94.9138H105.422V88.8418Z" fill="#EBEBEB"/>
<path d="M105.422 78.5332H99.5254V84.6052H105.422V78.5332Z" fill="#EBEBEB"/>
<path d="M105.422 68.2246H99.5254V74.2961H105.422V68.2246Z" fill="#EBEBEB"/>
<path d="M107.004 208.309H112.9V202.237H107.004V208.309Z" fill="#EBEBEB"/>
<path d="M70.899 222.076H94.8164L94.8164 63.0581H70.899L70.899 222.076Z" fill="#A6A6A6"/>
<path d="M78.2331 202.236H73.3633V208.308H78.2331V202.236Z" fill="#C7C7C7"/>
<path d="M84.4636 202.236H79.5938V208.308H84.4636V202.236Z" fill="#C7C7C7"/>
<path d="M78.2331 191.928H73.3633V198H78.2331V191.928Z" fill="#C7C7C7"/>
<path d="M84.4636 191.928H79.5938V198H84.4636V191.928Z" fill="#C7C7C7"/>
<path d="M78.2331 181.619H73.3633V187.691H78.2331V181.619Z" fill="#C7C7C7"/>
<path d="M84.4636 181.619H79.5938V187.691H84.4636V181.619Z" fill="#C7C7C7"/>
<path d="M78.2331 171.311H73.3633V177.383H78.2331V171.311Z" fill="#C7C7C7"/>
<path d="M84.4636 171.311H79.5938V177.383H84.4636V171.311Z" fill="#C7C7C7"/>
<path d="M78.2331 161.002H73.3633V167.074H78.2331V161.002Z" fill="#C7C7C7"/>
<path d="M84.4636 161.002H79.5938V167.074H84.4636V161.002Z" fill="#C7C7C7"/>
<path d="M78.2331 150.693H73.3633V156.765H78.2331V150.693Z" fill="#C7C7C7"/>
<path d="M84.4636 150.693H79.5938V156.765H84.4636V150.693Z" fill="#C7C7C7"/>
<path d="M78.2331 140.385H73.3633V146.457H78.2331V140.385Z" fill="#C7C7C7"/>
<path d="M84.4636 140.385H79.5938V146.457H84.4636V140.385Z" fill="#C7C7C7"/>
<path d="M78.2331 130.076H73.3633V136.148H78.2331V130.076Z" fill="#C7C7C7"/>
<path d="M84.4636 130.076H79.5938V136.148H84.4636V130.076Z" fill="#C7C7C7"/>
<path d="M78.2331 119.768H73.3633V125.84H78.2331V119.768Z" fill="#C7C7C7"/>
<path d="M84.4636 119.768H79.5938V125.84H84.4636V119.768Z" fill="#C7C7C7"/>
<path d="M78.2331 109.459H73.3633V115.531H78.2331V109.459Z" fill="#C7C7C7"/>
<path d="M84.4636 109.459H79.5938V115.531H84.4636V109.459Z" fill="#C7C7C7"/>
<path d="M78.2331 99.1504H73.3633V105.222H78.2331V99.1504Z" fill="#C7C7C7"/>
<path d="M84.4636 99.1504H79.5938V105.222H84.4636V99.1504Z" fill="#C7C7C7"/>
<path d="M78.2331 88.8418H73.3633V94.9138H78.2331V88.8418Z" fill="#C7C7C7"/>
<path d="M84.4636 88.8418H79.5938V94.9138H84.4636V88.8418Z" fill="#C7C7C7"/>
<path d="M78.2331 78.5332H73.3633V84.6052H78.2331V78.5332Z" fill="#C7C7C7"/>
<path d="M84.4636 78.5332H79.5938V84.6052H84.4636V78.5332Z" fill="#C7C7C7"/>
<path d="M78.2331 68.2246H73.3633V74.2961H78.2331V68.2246Z" fill="#C7C7C7"/>
<path d="M85.7689 74.2969H90.6387V68.2254H85.7689V74.2969Z" fill="#C7C7C7"/>
<path d="M85.7689 84.6055H90.6387V78.5334H85.7689V84.6055Z" fill="#C7C7C7"/>
<path d="M85.7689 94.9141H90.6387V88.842H85.7689V94.9141Z" fill="#C7C7C7"/>
<path d="M85.7689 105.223H90.6387V99.1506H85.7689V105.223Z" fill="#C7C7C7"/>
<path d="M85.7689 115.531H90.6387V109.459H85.7689V115.531Z" fill="#C7C7C7"/>
<path d="M85.7689 125.84H90.6387V119.768H85.7689V125.84Z" fill="#C7C7C7"/>
<path d="M85.7689 136.148H90.6387V130.077H85.7689V136.148Z" fill="#C7C7C7"/>
<path d="M85.7689 146.457H90.6387V140.385H85.7689V146.457Z" fill="#C7C7C7"/>
<path d="M85.7689 156.766H90.6387V150.694H85.7689V156.766Z" fill="#C7C7C7"/>
<path d="M85.7689 167.074H90.6387V161.002H85.7689V167.074Z" fill="#C7C7C7"/>
<path d="M85.7689 177.383H90.6387V171.311H85.7689V177.383Z" fill="#C7C7C7"/>
<path d="M85.7689 187.691H90.6387V181.619H85.7689V187.691Z" fill="#C7C7C7"/>
<path d="M85.7689 198H90.6387V191.928H85.7689V198Z" fill="#C7C7C7"/>
<path d="M85.7689 208.309H90.6387V202.237H85.7689V208.309Z" fill="#C7C7C7"/>
<path d="M84.4636 68.2246H79.5938V74.2961H84.4636V68.2246Z" fill="#C7C7C7"/>
<path d="M260.887 222.076H294.727V64.0445H260.887V222.076Z" fill="#EBEBEB"/>
<path d="M260.888 64.0449H295.541V60.5854L260.888 60.5854V64.0449Z" fill="#C7C7C7"/>
<path d="M288.24 222.078H291.668V69.1467H288.24V222.078Z" fill="white"/>
<path d="M282.165 222.078H285.594V69.1467H282.165V222.078Z" fill="white"/>
<path d="M276.093 222.078H279.521V69.1467H276.093V222.078Z" fill="white"/>
<path d="M270.02 222.078H273.449V69.1467H270.02V222.078Z" fill="white"/>
<path d="M263.947 222.078H267.375V69.1467H263.947V222.078Z" fill="white"/>
<path d="M288.24 80.3477H291.668V73.518H288.24V80.3477Z" fill="#EBEBEB"/>
<path d="M282.165 80.3477H285.594V73.518H282.165V80.3477Z" fill="#EBEBEB"/>
<path d="M276.093 80.3477H279.521V73.518H276.093V80.3477Z" fill="#EBEBEB"/>
<path d="M270.02 80.3477H273.449V73.518H270.02V80.3477Z" fill="#EBEBEB"/>
<path d="M263.947 80.3477H267.375V73.518H263.947V80.3477Z" fill="#EBEBEB"/>
<path d="M288.24 91.4473H291.668V84.6171H288.24V91.4473Z" fill="#EBEBEB"/>
<path d="M282.165 91.4473H285.594V84.6171H282.165V91.4473Z" fill="#EBEBEB"/>
<path d="M276.093 91.4473H279.521V84.6171H276.093V91.4473Z" fill="#EBEBEB"/>
<path d="M270.02 91.4473H273.449V84.6171H270.02V91.4473Z" fill="#EBEBEB"/>
<path d="M263.947 91.4473H267.375V84.6171H263.947V91.4473Z" fill="#EBEBEB"/>
<path d="M288.24 102.549H291.668V95.7192H288.24V102.549Z" fill="#EBEBEB"/>
<path d="M282.165 102.549H285.594V95.7192H282.165V102.549Z" fill="#EBEBEB"/>
<path d="M276.093 102.549H279.521V95.7192H276.093V102.549Z" fill="#EBEBEB"/>
<path d="M270.02 102.549H273.449V95.7192H270.02V102.549Z" fill="#EBEBEB"/>
<path d="M263.947 102.549H267.375V95.7192H263.947V102.549Z" fill="#EBEBEB"/>
<path d="M288.24 113.648H291.668V106.819H288.24V113.648Z" fill="#EBEBEB"/>
<path d="M282.165 113.648H285.594V106.819H282.165V113.648Z" fill="#EBEBEB"/>
<path d="M276.093 113.648H279.521V106.819H276.093V113.648Z" fill="#EBEBEB"/>
<path d="M270.02 113.648H273.449V106.819H270.02V113.648Z" fill="#EBEBEB"/>
<path d="M263.947 113.648H267.375V106.819H263.947V113.648Z" fill="#EBEBEB"/>
<path d="M288.24 124.748H291.668V117.918H288.24V124.748Z" fill="#EBEBEB"/>
<path d="M282.165 124.748H285.594V117.918H282.165V124.748Z" fill="#EBEBEB"/>
<path d="M276.093 124.748H279.521V117.918H276.093V124.748Z" fill="#EBEBEB"/>
<path d="M270.02 124.748H273.449V117.918H270.02V124.748Z" fill="#EBEBEB"/>
<path d="M263.947 124.748H267.375V117.918H263.947V124.748Z" fill="#EBEBEB"/>
<path d="M288.24 135.85H291.668V129.019H288.24V135.85Z" fill="#EBEBEB"/>
<path d="M282.165 135.85H285.594V129.019H282.165V135.85Z" fill="#EBEBEB"/>
<path d="M276.093 135.85H279.521V129.019H276.093V135.85Z" fill="#EBEBEB"/>
<path d="M270.02 135.85H273.449V129.019H270.02V135.85Z" fill="#EBEBEB"/>
<path d="M263.947 135.85H267.375V129.019H263.947V135.85Z" fill="#EBEBEB"/>
<path d="M288.24 146.949H291.668V140.12H288.24V146.949Z" fill="#EBEBEB"/>
<path d="M282.165 146.949H285.594V140.12H282.165V146.949Z" fill="#EBEBEB"/>
<path d="M276.093 146.949H279.521V140.12H276.093V146.949Z" fill="#EBEBEB"/>
<path d="M270.02 146.949H273.449V140.12H270.02V146.949Z" fill="#EBEBEB"/>
<path d="M263.947 146.949H267.375V140.12H263.947V146.949Z" fill="#EBEBEB"/>
<path d="M288.24 158.049H291.668V151.219H288.24V158.049Z" fill="#EBEBEB"/>
<path d="M282.165 158.049H285.594V151.219H282.165V158.049Z" fill="#EBEBEB"/>
<path d="M276.093 158.049H279.521V151.219H276.093V158.049Z" fill="#EBEBEB"/>
<path d="M270.02 158.049H273.449V151.219H270.02V158.049Z" fill="#EBEBEB"/>
<path d="M263.947 158.049H267.375V151.219H263.947V158.049Z" fill="#EBEBEB"/>
<path d="M288.24 169.15H291.668V162.321H288.24V169.15Z" fill="#EBEBEB"/>
<path d="M282.165 169.15H285.594V162.321H282.165V169.15Z" fill="#EBEBEB"/>
<path d="M276.093 169.15H279.521V162.321H276.093V169.15Z" fill="#EBEBEB"/>
<path d="M270.02 169.15H273.449V162.321H270.02V169.15Z" fill="#EBEBEB"/>
<path d="M263.947 169.15H267.375V162.321H263.947V169.15Z" fill="#EBEBEB"/>
<path d="M288.24 180.25H291.668V173.42H288.24V180.25Z" fill="#EBEBEB"/>
<path d="M282.165 180.25H285.594V173.42H282.165V180.25Z" fill="#EBEBEB"/>
<path d="M276.093 180.25H279.521V173.42H276.093V180.25Z" fill="#EBEBEB"/>
<path d="M270.02 180.25H273.449V173.42H270.02V180.25Z" fill="#EBEBEB"/>
<path d="M263.947 180.25H267.375V173.42H263.947V180.25Z" fill="#EBEBEB"/>
<path d="M288.24 191.35H291.668V184.52H288.24V191.35Z" fill="#EBEBEB"/>
<path d="M282.165 191.35H285.594V184.52H282.165V191.35Z" fill="#EBEBEB"/>
<path d="M276.093 191.35H279.521V184.52H276.093V191.35Z" fill="#EBEBEB"/>
<path d="M270.02 191.35H273.449V184.52H270.02V191.35Z" fill="#EBEBEB"/>
<path d="M263.947 191.35H267.375V184.52H263.947V191.35Z" fill="#EBEBEB"/>
<path d="M288.24 202.449H291.668V195.62H288.24V202.449Z" fill="#EBEBEB"/>
<path d="M282.165 202.449H285.594V195.62H282.165V202.449Z" fill="#EBEBEB"/>
<path d="M276.093 202.449H279.521V195.62H276.093V202.449Z" fill="#EBEBEB"/>
<path d="M270.02 202.449H273.449V195.62H270.02V202.449Z" fill="#EBEBEB"/>
<path d="M263.947 202.449H267.375V195.62H263.947V202.449Z" fill="#EBEBEB"/>
<path d="M288.24 213.551H291.668V206.721H288.24V213.551Z" fill="#EBEBEB"/>
<path d="M282.165 213.551H285.594V206.721H282.165V213.551Z" fill="#EBEBEB"/>
<path d="M276.093 213.551H279.521V206.721H276.093V213.551Z" fill="#EBEBEB"/>
<path d="M270.02 213.551H273.449V206.721H270.02V213.551Z" fill="#EBEBEB"/>
<path d="M263.947 213.551H267.375V206.721H263.947V213.551Z" fill="#EBEBEB"/>
<path d="M288.24 222.078H291.668V217.821H288.24V222.078Z" fill="#EBEBEB"/>
<path d="M282.165 222.078H285.594V217.821H282.165V222.078Z" fill="#EBEBEB"/>
<path d="M276.093 222.078H279.521V217.821H276.093V222.078Z" fill="#EBEBEB"/>
<path d="M270.02 222.078H273.449V217.821H270.02V222.078Z" fill="#EBEBEB"/>
<path d="M263.947 222.078H267.375V217.821H263.947V222.078Z" fill="#EBEBEB"/>
<path d="M239.162 222.076H260.887V64.0445H239.162L239.162 222.076Z" fill="#DBDBDB"/>
<path d="M238.221 64.0449H260.887V60.5854H238.221V64.0449Z" fill="#C7C7C7"/>
<path d="M254.398 222.078H257.826V69.1467H254.398L254.398 222.078Z" fill="#C7C7C7"/>
<path d="M248.326 222.078H251.754L251.754 69.1467H248.326L248.326 222.078Z" fill="#C7C7C7"/>
<path d="M242.251 222.078H245.68L245.68 69.1467H242.251L242.251 222.078Z" fill="#C7C7C7"/>
<path d="M254.398 80.3477H257.826V73.518H254.398V80.3477Z" fill="#DBDBDB"/>
<path d="M248.326 80.3477H251.754V73.518H248.326V80.3477Z" fill="#DBDBDB"/>
<path d="M242.251 80.3477H245.68V73.518H242.251V80.3477Z" fill="#DBDBDB"/>
<path d="M254.398 91.4473H257.826V84.6171H254.398V91.4473Z" fill="#DBDBDB"/>
<path d="M248.326 91.4473H251.754V84.6171H248.326V91.4473Z" fill="#DBDBDB"/>
<path d="M242.251 91.4473H245.68V84.6171H242.251V91.4473Z" fill="#DBDBDB"/>
<path d="M254.398 102.549H257.826V95.7192H254.398V102.549Z" fill="#DBDBDB"/>
<path d="M248.326 102.549H251.754V95.7192H248.326V102.549Z" fill="#DBDBDB"/>
<path d="M242.251 102.549H245.68V95.7192H242.251V102.549Z" fill="#DBDBDB"/>
<path d="M254.398 113.648H257.826V106.819H254.398V113.648Z" fill="#DBDBDB"/>
<path d="M248.326 113.648H251.754V106.819H248.326V113.648Z" fill="#DBDBDB"/>
<path d="M242.251 113.648H245.68V106.819H242.251V113.648Z" fill="#DBDBDB"/>
<path d="M254.398 124.748H257.826V117.918H254.398V124.748Z" fill="#DBDBDB"/>
<path d="M248.326 124.748H251.754V117.918H248.326V124.748Z" fill="#DBDBDB"/>
<path d="M242.251 124.748H245.68V117.918H242.251V124.748Z" fill="#DBDBDB"/>
<path d="M254.398 135.85H257.826V129.019H254.398V135.85Z" fill="#DBDBDB"/>
<path d="M248.326 135.85H251.754V129.019H248.326V135.85Z" fill="#DBDBDB"/>
<path d="M242.251 135.85H245.68V129.019H242.251V135.85Z" fill="#DBDBDB"/>
<path d="M254.398 146.949H257.826V140.12H254.398V146.949Z" fill="#DBDBDB"/>
<path d="M248.326 146.949H251.754V140.12H248.326V146.949Z" fill="#DBDBDB"/>
<path d="M242.251 146.949H245.68V140.12H242.251V146.949Z" fill="#DBDBDB"/>
<path d="M254.398 158.049H257.826V151.219H254.398V158.049Z" fill="#DBDBDB"/>
<path d="M248.326 158.049H251.754V151.219H248.326V158.049Z" fill="#DBDBDB"/>
<path d="M242.251 158.049H245.68V151.219H242.251V158.049Z" fill="#DBDBDB"/>
<path d="M254.398 169.15H257.826V162.321H254.398V169.15Z" fill="#DBDBDB"/>
<path d="M248.326 169.15H251.754V162.321H248.326V169.15Z" fill="#DBDBDB"/>
<path d="M242.251 169.15H245.68V162.321H242.251V169.15Z" fill="#DBDBDB"/>
<path d="M254.398 180.25H257.826V173.42H254.398V180.25Z" fill="#DBDBDB"/>
<path d="M248.326 180.25H251.754V173.42H248.326V180.25Z" fill="#DBDBDB"/>
<path d="M242.251 180.25H245.68V173.42H242.251V180.25Z" fill="#DBDBDB"/>
<path d="M254.398 191.35H257.826V184.52H254.398V191.35Z" fill="#DBDBDB"/>
<path d="M248.326 191.35H251.754V184.52H248.326V191.35Z" fill="#DBDBDB"/>
<path d="M242.251 191.35H245.68V184.52H242.251V191.35Z" fill="#DBDBDB"/>
<path d="M254.398 202.449H257.826V195.62H254.398V202.449Z" fill="#DBDBDB"/>
<path d="M248.326 202.449H251.754V195.62H248.326V202.449Z" fill="#DBDBDB"/>
<path d="M242.251 202.449H245.68V195.62H242.251V202.449Z" fill="#DBDBDB"/>
<path d="M254.398 213.551H257.826V206.721H254.398V213.551Z" fill="#DBDBDB"/>
<path d="M248.326 213.551H251.754V206.721H248.326V213.551Z" fill="#DBDBDB"/>
<path d="M242.251 213.551H245.68V206.721H242.251V213.551Z" fill="#DBDBDB"/>
<path d="M254.398 222.078H257.826V217.821H254.398V222.078Z" fill="#DBDBDB"/>
<path d="M248.326 222.078H251.754V217.821H248.326V222.078Z" fill="#DBDBDB"/>
<path d="M242.251 222.078H245.68V217.821H242.251V222.078Z" fill="#DBDBDB"/>
<path d="M303.995 222.078H339.729V116.077H303.995V222.078Z" fill="#EBEBEB"/>
<path d="M303.994 116.076H334.645V107.088H303.994V116.076Z" fill="#C7C7C7"/>
<path d="M307.913 222.078H335.811V120.768H307.913V222.078Z" fill="#DBDBDB"/>
<path d="M307.913 132.83H335.811V130.436H307.913V132.83Z" fill="white"/>
<path d="M307.913 142.746H335.811V140.352H307.913V142.746Z" fill="white"/>
<path d="M307.913 152.662H335.811V150.268H307.913V152.662Z" fill="white"/>
<path d="M307.913 162.578H335.811V160.184H307.913V162.578Z" fill="white"/>
<path d="M307.913 172.496H335.811V170.102H307.913V172.496Z" fill="white"/>
<path d="M307.913 182.412H335.811V180.018H307.913V182.412Z" fill="white"/>
<path d="M307.913 192.328H335.811V189.934H307.913V192.328Z" fill="white"/>
<path d="M307.913 202.244H335.811V199.85H307.913V202.244Z" fill="white"/>
<path d="M307.913 212.16H335.811V209.766H307.913V212.16Z" fill="white"/>
<path d="M307.913 222.078H335.811V219.684H307.913V222.078Z" fill="white"/>
<path d="M281.614 222.078H303.996V116.077H281.614V222.078Z" fill="#DBDBDB"/>
<path d="M284.973 116.076H303.996V107.088H284.973V116.076Z" fill="#A6A6A6"/>
<path d="M283.701 222.078H300.91V120.768H283.701V222.078Z" fill="#C7C7C7"/>
<path d="M283.701 132.83H300.91V130.436H283.701V132.83Z" fill="white"/>
<path d="M283.701 142.746H300.91V140.352H283.701V142.746Z" fill="white"/>
<path d="M283.701 152.662H300.91V150.268H283.701V152.662Z" fill="white"/>
<path d="M283.701 162.578H300.91V160.184H283.701V162.578Z" fill="white"/>
<path d="M283.701 172.496H300.91V170.102H283.701V172.496Z" fill="white"/>
<path d="M283.701 182.412H300.91V180.018H283.701V182.412Z" fill="white"/>
<path d="M283.701 192.328H300.91V189.934H283.701V192.328Z" fill="white"/>
<path d="M283.701 202.244H300.91V199.85H283.701V202.244Z" fill="white"/>
<path d="M283.701 212.16H300.91V209.766H283.701V212.16Z" fill="white"/>
<path d="M283.701 222.078H300.91V219.684H283.701V222.078Z" fill="white"/>
<path d="M217.755 222.078H248.033V116.077H217.755V222.078Z" fill="#DBDBDB"/>
<path d="M237.913 131.746H243.271V125.252H237.913V131.746Z" fill="#C7C7C7"/>
<path d="M237.913 145.617H243.271V139.123H237.913V145.617Z" fill="#C7C7C7"/>
<path d="M237.913 159.49H243.271V152.995H237.913V159.49Z" fill="#C7C7C7"/>
<path d="M237.913 173.361H243.271V166.867H237.913V173.361Z" fill="#C7C7C7"/>
<path d="M237.913 187.232H243.271V180.738H237.913V187.232Z" fill="#C7C7C7"/>
<path d="M237.913 201.104H243.271V194.609H237.913V201.104Z" fill="#C7C7C7"/>
<path d="M237.913 214.975H243.271V208.48H237.913V214.975Z" fill="#C7C7C7"/>
<path d="M230.206 131.746H235.564V125.252H230.206V131.746Z" fill="#C7C7C7"/>
<path d="M230.206 145.617H235.564V139.123H230.206V145.617Z" fill="#C7C7C7"/>
<path d="M230.206 159.49H235.564V152.995H230.206V159.49Z" fill="#C7C7C7"/>
<path d="M230.206 173.361H235.564V166.867H230.206V173.361Z" fill="#C7C7C7"/>
<path d="M230.206 187.232H235.564V180.738H230.206V187.232Z" fill="#C7C7C7"/>
<path d="M230.206 201.104H235.564V194.609H230.206V201.104Z" fill="#C7C7C7"/>
<path d="M230.206 214.975H235.564V208.48H230.206V214.975Z" fill="#C7C7C7"/>
<path d="M222.517 131.746H227.875V125.252H222.517V131.746Z" fill="#C7C7C7"/>
<path d="M222.517 145.617H227.875V139.123H222.517V145.617Z" fill="#C7C7C7"/>
<path d="M222.517 159.49H227.875V152.995H222.517V159.49Z" fill="#C7C7C7"/>
<path d="M222.517 173.361H227.875V166.867H222.517V173.361Z" fill="#C7C7C7"/>
<path d="M222.517 187.232H227.875V180.738H222.517V187.232Z" fill="#C7C7C7"/>
<path d="M222.517 201.104H227.875V194.609H222.517V201.104Z" fill="#C7C7C7"/>
<path d="M222.517 214.975H227.875V208.48H222.517V214.975Z" fill="#C7C7C7"/>
<path d="M196.513 222.078H217.756V116.077H196.513V222.078Z" fill="#A6A6A6"/>
<path d="M203.049 207.445H198.688V213.94H203.049V207.445Z" fill="#C7C7C7"/>
<path d="M203.049 193.574H198.688V200.069H203.049V193.574Z" fill="#C7C7C7"/>
<path d="M203.049 179.703H198.688V186.197H203.049V179.703Z" fill="#C7C7C7"/>
<path d="M203.049 165.83H198.688V172.325H203.049V165.83Z" fill="#C7C7C7"/>
<path d="M203.049 151.959H198.688V158.454H203.049V151.959Z" fill="#C7C7C7"/>
<path d="M203.049 138.088H198.688V144.583H203.049V138.088Z" fill="#C7C7C7"/>
<path d="M203.049 124.217H198.688V130.711H203.049V124.217Z" fill="#C7C7C7"/>
<path d="M209.323 207.445H204.961V213.94H209.323V207.445Z" fill="#C7C7C7"/>
<path d="M209.323 193.574H204.961V200.069H209.323V193.574Z" fill="#C7C7C7"/>
<path d="M209.323 179.703H204.961V186.197H209.323V179.703Z" fill="#C7C7C7"/>
<path d="M209.323 165.83H204.961V172.325H209.323V165.83Z" fill="#C7C7C7"/>
<path d="M209.323 151.959H204.961V158.454H209.323V151.959Z" fill="#C7C7C7"/>
<path d="M209.323 138.088H204.961V144.583H209.323V138.088Z" fill="#C7C7C7"/>
<path d="M209.323 124.217H204.961V130.711H209.323V124.217Z" fill="#C7C7C7"/>
<path d="M215.582 207.445H211.221V213.94H215.582V207.445Z" fill="#C7C7C7"/>
<path d="M215.582 193.574H211.221V200.069H215.582V193.574Z" fill="#C7C7C7"/>
<path d="M215.582 179.703H211.221V186.197H215.582V179.703Z" fill="#C7C7C7"/>
<path d="M215.582 165.83H211.221V172.325H215.582V165.83Z" fill="#C7C7C7"/>
<path d="M215.582 151.959H211.221V158.454H215.582V151.959Z" fill="#C7C7C7"/>
<path d="M215.582 138.088H211.221V144.583H215.582V138.088Z" fill="#C7C7C7"/>
<path d="M215.582 124.217H211.221V130.711H215.582V124.217Z" fill="#C7C7C7"/>
<path d="M49.7333 111.387H68.8184V88.8421H49.7333V111.387Z" fill="#DBDBDB"/>
<path d="M37.632 112.213H49.7324V88.8415H37.632V112.213Z" fill="#C7C7C7"/>
<path d="M36.8265 112.213H48.8359V98.7969H36.8265V112.213Z" fill="#DBDBDB"/>
<path d="M29.338 112.213H36.8281V98.7969H29.338V112.213Z" fill="#C7C7C7"/>
<path d="M45.2788 222.076H76.1387L76.1387 109.919H45.2788L45.2788 222.076Z" fill="#EBEBEB"/>
<path d="M62.909 118.707H72.6133V114.742H62.909V118.707Z" fill="white"/>
<path d="M50.495 118.707H60.1992V114.742H50.495V118.707Z" fill="white"/>
<path d="M62.909 125.439H72.6133V121.474H62.909V125.439Z" fill="white"/>
<path d="M50.495 125.439H60.1992V121.474H50.495V125.439Z" fill="white"/>
<path d="M62.909 132.172H72.6133V128.207H62.909V132.172Z" fill="white"/>
<path d="M50.495 132.172H60.1992V128.207H50.495V132.172Z" fill="white"/>
<path d="M62.909 138.902H72.6133V134.937H62.909V138.902Z" fill="white"/>
<path d="M50.495 138.902H60.1992V134.937H50.495V138.902Z" fill="white"/>
<path d="M62.909 145.635H72.6133V141.67H62.909V145.635Z" fill="white"/>
<path d="M50.495 145.635H60.1992V141.67H50.495V145.635Z" fill="white"/>
<path d="M62.909 152.367H72.6133V148.402H62.909V152.367Z" fill="white"/>
<path d="M50.495 152.367H60.1992V148.402H50.495V152.367Z" fill="white"/>
<path d="M62.909 159.1H72.6133V155.135H62.909V159.1Z" fill="white"/>
<path d="M50.495 159.1H60.1992V155.135H50.495V159.1Z" fill="white"/>
<path d="M62.909 165.83H72.6133V161.865H62.909V165.83Z" fill="white"/>
<path d="M50.495 165.83H60.1992V161.865H50.495V165.83Z" fill="white"/>
<path d="M62.909 172.562H72.6133V168.598H62.909V172.562Z" fill="white"/>
<path d="M50.495 172.562H60.1992V168.598H50.495V172.562Z" fill="white"/>
<path d="M62.909 179.295H72.6133V175.33H62.909V179.295Z" fill="white"/>
<path d="M50.495 179.295H60.1992V175.33H50.495V179.295Z" fill="white"/>
<path d="M62.909 186.027H72.6133V182.062H62.909V186.027Z" fill="white"/>
<path d="M50.495 186.027H60.1992V182.062H50.495V186.027Z" fill="white"/>
<path d="M62.909 192.76H72.6133V188.794H62.909V192.76Z" fill="white"/>
<path d="M50.495 192.76H60.1992V188.794H50.495V192.76Z" fill="white"/>
<path d="M62.909 199.49H72.6133V195.525H62.909V199.49Z" fill="white"/>
<path d="M50.495 199.49H60.1992V195.525H50.495V199.49Z" fill="white"/>
<path d="M62.909 206.223H72.6133V202.258H62.909V206.223Z" fill="white"/>
<path d="M50.495 206.223H60.1992V202.258H50.495V206.223Z" fill="white"/>
<path d="M20.2705 222.076H45.2773L45.2773 109.919H20.2705L20.2705 222.076Z" fill="#C7C7C7"/>
<path d="M30.7467 202.258H22.7793V206.223H30.7467V202.258Z" fill="#EBEBEB"/>
<path d="M40.9401 202.258H32.9727V206.223H40.9401V202.258Z" fill="#EBEBEB"/>
<path d="M30.7467 195.525H22.7793V199.49H30.7467V195.525Z" fill="#EBEBEB"/>
<path d="M40.9401 195.525H32.9727V199.49H40.9401V195.525Z" fill="#EBEBEB"/>
<path d="M30.7467 188.793H22.7793V192.758H30.7467V188.793Z" fill="#EBEBEB"/>
<path d="M40.9401 188.793H32.9727V192.758H40.9401V188.793Z" fill="#EBEBEB"/>
<path d="M30.7467 182.062H22.7793V186.028H30.7467V182.062Z" fill="#EBEBEB"/>
<path d="M40.9401 182.062H32.9727V186.028H40.9401V182.062Z" fill="#EBEBEB"/>
<path d="M30.7467 175.33H22.7793V179.295H30.7467V175.33Z" fill="#EBEBEB"/>
<path d="M40.9401 175.33H32.9727V179.295H40.9401V175.33Z" fill="#EBEBEB"/>
<path d="M30.7467 168.598H22.7793V172.563H30.7467V168.598Z" fill="#EBEBEB"/>
<path d="M40.9401 168.598H32.9727V172.563H40.9401V168.598Z" fill="#EBEBEB"/>
<path d="M30.7467 161.865H22.7793V165.83H30.7467V161.865Z" fill="#EBEBEB"/>
<path d="M40.9401 161.865H32.9727V165.83H40.9401V161.865Z" fill="#EBEBEB"/>
<path d="M30.7467 155.135H22.7793V159.1H30.7467V155.135Z" fill="#EBEBEB"/>
<path d="M40.9401 155.135H32.9727V159.1H40.9401V155.135Z" fill="#EBEBEB"/>
<path d="M30.7467 148.402H22.7793V152.367H30.7467V148.402Z" fill="#EBEBEB"/>
<path d="M40.9401 148.402H32.9727V152.367H40.9401V148.402Z" fill="#EBEBEB"/>
<path d="M30.7467 141.67H22.7793V145.635H30.7467V141.67Z" fill="#EBEBEB"/>
<path d="M40.9401 141.67H32.9727V145.635H40.9401V141.67Z" fill="#EBEBEB"/>
<path d="M30.7467 134.938H22.7793V138.902H30.7467V134.938Z" fill="#EBEBEB"/>
<path d="M40.9401 134.938H32.9727V138.902H40.9401V134.938Z" fill="#EBEBEB"/>
<path d="M30.7467 128.205H22.7793V132.17H30.7467V128.205Z" fill="#EBEBEB"/>
<path d="M40.9401 128.205H32.9727V132.17H40.9401V128.205Z" fill="#EBEBEB"/>
<path d="M30.7467 121.475H22.7793V125.44H30.7467V121.475Z" fill="#EBEBEB"/>
<path d="M40.9401 121.475H32.9727V125.44H40.9401V121.475Z" fill="#EBEBEB"/>
<path d="M30.7467 114.742H22.7793V118.707H30.7467V114.742Z" fill="#EBEBEB"/>
<path d="M40.9401 114.742H32.9727V118.707H40.9401V114.742Z" fill="#EBEBEB"/>
<path d="M135.802 222.078H172.201V148.995H135.802V222.078Z" fill="#C7C7C7"/>
<path d="M160.035 159.799H166.477V155.321H160.035V159.799Z" fill="#DBDBDB"/>
<path d="M160.035 169.361H166.477V164.884H160.035V169.361Z" fill="#DBDBDB"/>
<path d="M160.035 178.926H166.477V174.448H160.035V178.926Z" fill="#DBDBDB"/>
<path d="M160.035 188.488H166.477V184.011H160.035V188.488Z" fill="#DBDBDB"/>
<path d="M160.035 198.053H166.477V193.575H160.035V198.053Z" fill="#DBDBDB"/>
<path d="M160.035 207.615H166.477V203.138H160.035V207.615Z" fill="#DBDBDB"/>
<path d="M160.035 217.18H166.477V212.702H160.035V217.18Z" fill="#DBDBDB"/>
<path d="M150.769 159.799H157.211V155.321H150.769V159.799Z" fill="#DBDBDB"/>
<path d="M150.769 169.361H157.211V164.884H150.769V169.361Z" fill="#DBDBDB"/>
<path d="M150.769 178.926H157.211V174.448H150.769V178.926Z" fill="#DBDBDB"/>
<path d="M150.769 188.488H157.211V184.011H150.769V188.488Z" fill="#DBDBDB"/>
<path d="M150.769 198.053H157.211V193.575H150.769V198.053Z" fill="#DBDBDB"/>
<path d="M150.769 207.615H157.211V203.138H150.769V207.615Z" fill="#DBDBDB"/>
<path d="M150.769 217.18H157.211V212.702H150.769V217.18Z" fill="#DBDBDB"/>
<path d="M141.525 159.799H147.967V155.321H141.525V159.799Z" fill="#DBDBDB"/>
<path d="M141.525 169.361H147.967V164.884H141.525V169.361Z" fill="#DBDBDB"/>
<path d="M141.525 178.926H147.967V174.448H141.525V178.926Z" fill="#DBDBDB"/>
<path d="M141.525 188.488H147.967V184.011H141.525V188.488Z" fill="#DBDBDB"/>
<path d="M141.525 198.053H147.967V193.575H141.525V198.053Z" fill="#DBDBDB"/>
<path d="M141.525 207.615H147.967V203.138H141.525V207.615Z" fill="#DBDBDB"/>
<path d="M141.525 217.18H147.967V212.702H141.525V217.18Z" fill="#DBDBDB"/>
<path d="M135.802 148.994H160.035V141.38H135.802V148.994Z" fill="#DBDBDB"/>
<path d="M135.8 141.381H151.164V136.667H135.8V141.381Z" fill="#EBEBEB"/>
<path d="M110.263 222.078H135.801V148.995H110.263L110.263 222.078Z" fill="#A6A6A6"/>
<path d="M118.119 211.986H112.875V216.464H118.119V211.986Z" fill="#C7C7C7"/>
<path d="M118.119 202.424H112.875V206.902H118.119V202.424Z" fill="#C7C7C7"/>
<path d="M118.119 192.859H112.875V197.337H118.119V192.859Z" fill="#C7C7C7"/>
<path d="M118.119 183.297H112.875V187.775H118.119V183.297Z" fill="#C7C7C7"/>
<path d="M118.119 173.732H112.875V178.21H118.119V173.732Z" fill="#C7C7C7"/>
<path d="M118.119 164.17H112.875V168.648H118.119V164.17Z" fill="#C7C7C7"/>
<path d="M118.119 154.605H112.875V159.083H118.119V154.605Z" fill="#C7C7C7"/>
<path d="M125.662 211.986H120.418V216.464H125.662V211.986Z" fill="#C7C7C7"/>
<path d="M125.662 202.424H120.418V206.902H125.662V202.424Z" fill="#C7C7C7"/>
<path d="M125.662 192.859H120.418V197.337H125.662V192.859Z" fill="#C7C7C7"/>
<path d="M125.662 183.297H120.418V187.775H125.662V183.297Z" fill="#C7C7C7"/>
<path d="M125.662 173.732H120.418V178.21H125.662V173.732Z" fill="#C7C7C7"/>
<path d="M125.662 164.17H120.418V168.648H125.662V164.17Z" fill="#C7C7C7"/>
<path d="M125.662 154.605H120.418V159.083H125.662V154.605Z" fill="#C7C7C7"/>
<path d="M133.185 211.986H127.941V216.464H133.185V211.986Z" fill="#C7C7C7"/>
<path d="M133.185 202.424H127.941V206.902H133.185V202.424Z" fill="#C7C7C7"/>
<path d="M133.185 192.859H127.941V197.337H133.185V192.859Z" fill="#C7C7C7"/>
<path d="M133.185 183.297H127.941V187.775H133.185V183.297Z" fill="#C7C7C7"/>
<path d="M133.185 173.732H127.941V178.21H133.185V173.732Z" fill="#C7C7C7"/>
<path d="M133.185 164.17H127.941V168.648H133.185V164.17Z" fill="#C7C7C7"/>
<path d="M133.185 154.605H127.941V159.083H133.185V154.605Z" fill="#C7C7C7"/>
<path d="M114.131 148.994H135.801V141.38H114.131V148.994Z" fill="#C7C7C7"/>
<path d="M124.058 141.381H135.801V136.667H124.058V141.381Z" fill="#DBDBDB"/>
<path d="M180 241.785C253.896 241.785 313.799 238.389 313.799 234.2C313.799 230.011 253.896 226.615 180 226.615C106.105 226.615 46.2012 230.011 46.2012 234.2C46.2012 238.389 106.105 241.785 180 241.785Z" fill="#847446"/>
<path d="M15.3535 222.076C120.837 221.757 239.165 221.755 344.648 222.076C239.164 222.396 120.837 222.394 15.3535 222.076Z" fill="#263238"/>
<path d="M35.203 195.903H69.7544C69.7544 195.903 52.6921 151.957 42.8314 151.957C32.9716 151.957 35.203 195.903 35.203 195.903Z" fill="#263238"/>
<path opacity="0.3" d="M35.203 195.903H69.7544C69.7544 195.903 52.6921 151.957 42.8314 151.957C32.9716 151.957 35.203 195.903 35.203 195.903Z" fill="black"/>
<path d="M114.484 207.112H160.455C160.455 207.112 146.658 152.365 130.571 152.365C114.484 152.365 114.484 207.112 114.484 207.112Z" fill="#263238"/>
<path opacity="0.3" d="M114.484 207.112H160.455C160.455 207.112 146.658 152.365 130.571 152.365C114.484 152.365 114.484 207.112 114.484 207.112Z" fill="black"/>
<path d="M248.297 115.14C247.688 115.14 245.762 115.14 245.328 115.14C244.893 115.14 244.246 117.687 244.246 118.432C244.246 119.178 246.075 122.387 246.272 122.191C246.468 121.995 259.554 122.191 261.48 122.191C263.407 122.191 271.856 120.572 272.974 119.502C274.092 118.432 275.086 114.969 274.961 113.905C274.837 112.841 270.488 109.113 266.14 107.684C261.791 106.256 254.15 106.504 252.721 106.628C251.292 106.753 248.918 111.815 248.496 112.871C248.074 113.928 248.297 115.14 248.297 115.14Z" fill="#263238"/>
<path d="M249.642 113.906C249.737 114.752 251.598 118.114 252.349 118.182C259.613 118.866 270.396 117.997 274.079 117.655C274.662 116.265 275.043 114.589 274.958 113.906C274.835 112.841 270.486 109.114 266.137 107.684C261.787 106.255 254.148 106.502 252.719 106.625C252.287 106.665 251.777 107.146 251.256 107.83C251.251 107.836 251.251 107.847 251.245 107.852C249.211 111.961 249.553 113.06 249.642 113.906Z" fill="#FFC727"/>
<path d="M262.691 118.438L273.978 117.886L273.984 117.875C274.202 117.382 274.398 116.844 274.55 116.322C272.919 116.423 265.096 116.76 264.463 116.973C263.762 117.202 262.691 118.438 262.691 118.438Z" fill="#DBDBDB"/>
<path d="M180.603 202.087C180.603 222.208 169.899 238.518 156.697 238.518H139.607V165.654H156.697C169.898 165.654 180.603 181.964 180.603 202.087Z" fill="#37474F"/>
<path d="M139.602 238.52C152.801 238.52 163.5 222.208 163.5 202.086C163.5 181.964 152.801 165.652 139.602 165.652C126.403 165.652 115.703 181.964 115.703 202.086C115.703 222.208 126.403 238.52 139.602 238.52Z" fill="#263238"/>
<path d="M139.603 228.69C149.24 228.69 157.053 216.779 157.053 202.087C157.053 187.395 149.24 175.484 139.603 175.484C129.965 175.484 122.152 187.395 122.152 202.087C122.152 216.779 129.965 228.69 139.603 228.69Z" fill="#DBDBDB"/>
<path d="M139.602 226.614C148.488 226.614 155.691 215.633 155.691 202.086C155.691 188.539 148.488 177.557 139.602 177.557C130.715 177.557 123.512 188.539 123.512 202.086C123.512 215.633 130.715 226.614 139.602 226.614Z" fill="#A6A6A6"/>
<path d="M142.982 200.637C142.105 199.564 141.284 198.212 140.275 196.944C141.237 196.64 141.767 193.037 139.684 188.536C137.981 184.195 133.665 178.956 133.727 179.088C134.32 178.542 134.858 177.878 135.385 177.072C140.81 185.129 141.081 186.811 142.456 187.466C143.51 187.641 144.222 187.196 143.821 177.072C144.958 178.106 146 179.123 146.963 180.059C146.874 179.968 146.609 187.486 145.636 191.92C144.771 196.921 143.198 198.837 142.982 200.637Z" fill="#DBDBDB"/>
<path d="M139.897 196.885C138.937 197.834 137.795 198.588 136.653 199.642C136.697 198.374 134.834 196.09 131.242 197.908C127.923 199.133 122.874 204.461 122.852 204.689C122.838 203.242 122.821 201.796 122.803 200.345C129.929 194.657 130.887 195.087 131.939 193.214C132.669 191.715 131.037 189.511 126.539 186.289C127.434 185.233 128.172 184.307 128.722 183.379C128.55 183.454 133.53 187.445 135.652 190.307C138.068 193.207 138.926 196.065 139.897 196.885Z" fill="#DBDBDB"/>
<path d="M136.488 200.164C136.76 201.815 136.86 203.653 137.165 205.589C136.381 205.195 134.305 207.121 134.364 212.847C134.121 217.99 136.012 226.932 136.179 227.101C135.028 226.131 133.965 225.162 132.982 224.255C131.876 213.382 132.397 211.976 131.615 209.991C130.95 208.546 129.216 210.397 125.917 215.712C125.522 214.664 125.099 213.875 124.566 213.291C124.615 213.333 128.572 206.515 131.022 204.246C133.592 201.493 135.61 201.443 136.488 200.164Z" fill="#DBDBDB"/>
<path d="M137.443 205.973C138.583 206.053 139.788 206.437 141.119 206.566C140.439 207.655 141.324 210.97 144.408 212.865C147.168 214.94 153.971 216.057 153.943 215.985C152.979 217.141 152.153 218.134 151.502 219.084C146.12 216.861 143.213 215.351 142.077 215.88C141.304 216.583 140.746 217.45 144.739 225.115C144.139 225.656 143.58 226.312 143.021 227.1C142.908 226.852 139.585 219.856 138.581 215.303C137.186 210.3 138.109 207.742 137.443 205.973Z" fill="#DBDBDB"/>
<path d="M141.459 206.279C141.9 204.676 142.543 203.075 143.055 201.202C143.525 202.622 145.926 201.951 148.044 198.243C150.186 194.972 152.738 186.373 152.687 186.629C153.093 187.834 153.499 188.759 153.991 189.451C150.995 196.674 149.292 200.329 149.306 202.093C149.572 203.379 149.836 204.549 156.401 200.355C156.383 201.829 156.363 203.301 156.342 204.77C156.19 204.803 150.83 207.322 147.681 207.385C144.132 207.854 142.792 205.867 141.459 206.279Z" fill="#DBDBDB"/>
<path d="M142.149 205.425C140.833 207.533 138.668 207.677 137.299 205.791C135.918 203.886 135.872 200.641 137.168 198.564C138.473 196.476 140.614 196.301 141.996 198.166C143.392 200.052 143.458 203.332 142.149 205.425Z" fill="#DBDBDB"/>
<path d="M323.654 193.486C323.654 213.608 312.95 229.918 299.747 229.918H282.658V157.055H299.747C312.95 157.055 323.654 173.364 323.654 193.486Z" fill="#37474F"/>
<path d="M282.653 229.92C295.851 229.92 306.551 213.608 306.551 193.487C306.551 173.365 295.851 157.053 282.653 157.053C269.454 157.053 258.754 173.365 258.754 193.487C258.754 213.608 269.454 229.92 282.653 229.92Z" fill="#263238"/>
<path d="M282.653 220.09C292.291 220.09 300.103 208.18 300.103 193.487C300.103 178.795 292.291 166.885 282.653 166.885C273.016 166.885 265.203 178.795 265.203 193.487C265.203 208.18 273.016 220.09 282.653 220.09Z" fill="#DBDBDB"/>
<path d="M282.652 218.015C291.538 218.015 298.742 207.033 298.742 193.486C298.742 179.939 291.538 168.957 282.652 168.957C273.766 168.957 266.562 179.939 266.562 193.486C266.562 207.033 273.766 218.015 282.652 218.015Z" fill="#A6A6A6"/>
<path d="M286.032 192.037C285.156 190.964 284.334 189.613 283.325 188.344C284.287 188.041 284.818 184.438 282.735 179.937C281.032 175.596 276.717 170.356 276.778 170.489C277.37 169.942 277.908 169.278 278.436 168.473C283.86 176.53 284.132 178.211 285.507 178.866C286.561 179.041 287.273 178.596 286.872 168.473C288.009 169.506 289.051 170.523 290.014 171.46C289.925 171.368 289.66 178.886 288.687 183.32C287.822 188.321 286.249 190.238 286.032 192.037Z" fill="#DBDBDB"/>
<path d="M282.948 188.286C281.988 189.235 280.846 189.989 279.704 191.043C279.747 189.775 277.885 187.49 274.293 189.309C270.973 190.533 265.925 195.861 265.903 196.089C265.888 194.643 265.872 193.196 265.854 191.746C272.98 186.058 273.938 186.487 274.99 184.615C275.72 183.115 274.088 180.912 269.59 177.69C270.485 176.634 271.223 175.707 271.773 174.779C271.601 174.855 276.581 178.845 278.703 181.708C281.119 184.608 281.976 187.465 282.948 188.286Z" fill="#DBDBDB"/>
<path d="M279.539 191.562C279.811 193.213 279.911 195.052 280.216 196.987C279.432 196.593 277.356 198.519 277.415 204.245C277.172 209.388 279.062 218.331 279.229 218.499C278.079 217.529 277.016 216.56 276.032 215.653C274.926 204.78 275.447 203.374 274.666 201.389C274.001 199.945 272.266 201.795 268.968 207.11C268.573 206.062 268.15 205.273 267.617 204.689C267.666 204.731 271.623 197.914 274.072 195.644C276.642 192.892 278.66 192.842 279.539 191.562Z" fill="#DBDBDB"/>
<path d="M280.494 197.373C281.634 197.453 282.839 197.837 284.169 197.966C283.489 199.055 284.374 202.371 287.459 204.265C290.219 206.34 297.022 207.457 296.994 207.385C296.03 208.542 295.204 209.534 294.552 210.485C289.171 208.262 286.264 206.751 285.127 207.28C284.355 207.984 283.797 208.85 287.79 216.515C287.19 217.056 286.631 217.713 286.072 218.501C285.959 218.252 282.635 211.256 281.632 206.703C280.237 201.7 281.16 199.142 280.494 197.373Z" fill="#DBDBDB"/>
<path d="M284.51 197.679C284.951 196.077 285.594 194.476 286.106 192.602C286.576 194.022 288.977 193.352 291.095 189.643C293.236 186.372 295.789 177.773 295.738 178.029C296.144 179.234 296.549 180.159 297.042 180.851C294.046 188.074 292.342 191.729 292.357 193.494C292.623 194.779 292.886 195.95 299.451 191.755C299.434 193.23 299.413 194.702 299.393 196.171C299.24 196.204 293.881 198.722 290.732 198.785C287.183 199.254 285.843 197.267 284.51 197.679Z" fill="#DBDBDB"/>
<path d="M285.2 196.826C283.884 198.934 281.718 199.078 280.35 197.192C278.969 195.286 278.923 192.042 280.219 189.965C281.524 187.876 283.665 187.702 285.047 189.566C286.442 191.452 286.509 194.732 285.2 196.826Z" fill="#DBDBDB"/>
<path d="M75.02 193.559C75.02 209.387 70.8896 222.216 65.7947 222.216H47.3555V164.902H65.7947C70.8896 164.902 75.02 177.732 75.02 193.559Z" fill="#37474F"/>
<path d="M47.3531 222.219C52.4463 222.219 56.5753 209.388 56.5753 193.561C56.5753 177.733 52.4463 164.902 47.3531 164.902C42.2598 164.902 38.1309 177.733 38.1309 193.561C38.1309 209.388 42.2598 222.219 47.3531 222.219Z" fill="#263238"/>
<path d="M47.3526 214.486C51.0714 214.486 54.0861 205.118 54.0861 193.562C54.0861 182.005 51.0714 172.637 47.3526 172.637C43.6338 172.637 40.6191 182.005 40.6191 193.562C40.6191 205.118 43.6338 214.486 47.3526 214.486Z" fill="#DBDBDB"/>
<path d="M47.3533 212.854C50.7824 212.854 53.5621 204.216 53.5621 193.56C53.5621 182.904 50.7824 174.266 47.3533 174.266C43.9243 174.266 41.1445 182.904 41.1445 193.56C41.1445 204.216 43.9243 212.854 47.3533 212.854Z" fill="#A6A6A6"/>
<path d="M48.657 192.42C48.3185 191.576 48.0018 190.513 47.6123 189.515C47.9836 189.277 48.188 186.442 47.3846 182.902C46.7278 179.487 45.0623 175.366 45.0862 175.47C45.315 175.041 45.5225 174.518 45.7258 173.885C47.8188 180.222 47.9238 181.545 48.4548 182.06C48.8614 182.197 49.136 181.848 48.9815 173.885C49.4204 174.698 49.8224 175.498 50.1936 176.234C50.1593 176.162 50.0574 182.076 49.6814 185.563C49.3476 189.497 48.7408 191.005 48.657 192.42Z" fill="#DBDBDB"/>
<path d="M47.4673 189.469C47.0971 190.215 46.6561 190.809 46.2151 191.638C46.2318 190.641 45.5131 188.844 44.1273 190.274C42.8466 191.237 40.8981 195.429 40.8898 195.607C40.8841 194.47 40.8779 193.332 40.8711 192.192C43.6209 187.717 43.9906 188.055 44.3967 186.582C44.6785 185.402 44.0488 183.67 42.3131 181.135C42.6583 180.304 42.9428 179.576 43.1555 178.846C43.0889 178.905 45.0108 182.044 45.8298 184.295C46.7617 186.576 47.0924 188.823 47.4673 189.469Z" fill="#DBDBDB"/>
<path d="M46.1532 192.047C46.2582 193.345 46.2967 194.791 46.4142 196.314C46.1116 196.004 45.3108 197.519 45.3337 202.023C45.2395 206.068 45.9696 213.102 46.0336 213.235C45.5895 212.472 45.1797 211.71 44.8001 210.996C44.3732 202.444 44.5745 201.338 44.2729 199.776C44.0165 198.64 43.3467 200.095 42.0738 204.276C41.9214 203.452 41.7581 202.832 41.5527 202.373C41.5715 202.405 43.0987 197.043 44.0435 195.258C45.0357 193.092 45.8141 193.053 46.1532 192.047Z" fill="#DBDBDB"/>
<path d="M46.5215 196.617C46.9614 196.68 47.4263 196.982 47.9395 197.084C47.6769 197.94 48.0186 200.548 49.2088 202.038C50.2738 203.67 52.8988 204.549 52.8884 204.493C52.5166 205.402 52.1978 206.183 51.9461 206.931C49.8698 205.182 48.7476 203.994 48.3092 204.41C48.0113 204.963 47.796 205.645 49.3368 211.674C49.1054 212.1 48.8896 212.617 48.6738 213.236C48.6301 213.041 47.3478 207.538 46.9604 203.957C46.4222 200.022 46.7784 198.009 46.5215 196.617Z" fill="#DBDBDB"/>
<path d="M48.0703 196.859C48.2409 195.599 48.4889 194.339 48.6865 192.866C48.868 193.983 49.7941 193.455 50.6115 190.538C51.4383 187.966 52.4232 181.202 52.4035 181.403C52.56 182.351 52.7165 183.078 52.9063 183.623C51.7504 189.304 51.0931 192.179 51.0988 193.567C51.2012 194.579 51.3032 195.499 53.8366 192.2C53.8298 193.36 53.822 194.518 53.8142 195.673C53.7555 195.699 51.6874 197.68 50.4717 197.73C49.1015 198.098 48.5846 196.535 48.0703 196.859Z" fill="#DBDBDB"/>
<path d="M48.3354 196.186C47.8274 197.844 46.9923 197.958 46.464 196.474C45.931 194.976 45.9133 192.424 46.413 190.79C46.9169 189.147 47.7426 189.01 48.2762 190.476C48.8149 191.959 48.8409 194.539 48.3354 196.186Z" fill="#DBDBDB"/>
<path d="M217.493 193.559C217.493 209.387 213.362 222.216 208.267 222.216H189.828V164.902H208.267C213.362 164.902 217.493 177.732 217.493 193.559Z" fill="#37474F"/>
<path d="M189.826 222.219C194.919 222.219 199.048 209.388 199.048 193.561C199.048 177.733 194.919 164.902 189.826 164.902C184.732 164.902 180.604 177.733 180.604 193.561C180.604 209.388 184.732 222.219 189.826 222.219Z" fill="#263238"/>
<path d="M189.825 214.486C193.544 214.486 196.559 205.118 196.559 193.562C196.559 182.005 193.544 172.637 189.825 172.637C186.106 172.637 183.092 182.005 183.092 193.562C183.092 205.118 186.106 214.486 189.825 214.486Z" fill="#DBDBDB"/>
<path d="M189.826 212.854C193.255 212.854 196.035 204.216 196.035 193.56C196.035 182.904 193.255 174.266 189.826 174.266C186.397 174.266 183.617 182.904 183.617 193.56C183.617 204.216 186.397 212.854 189.826 212.854Z" fill="#A6A6A6"/>
<path d="M191.13 192.42C190.791 191.576 190.474 190.513 190.085 189.515C190.456 189.277 190.661 186.442 189.857 182.902C189.2 179.487 187.535 175.366 187.559 175.47C187.788 175.041 187.995 174.518 188.198 173.885C190.291 180.222 190.397 181.545 190.927 182.06C191.334 182.197 191.609 181.848 191.454 173.885C191.893 174.698 192.295 175.498 192.666 176.234C192.632 176.162 192.53 182.076 192.155 185.563C191.82 189.497 191.213 191.005 191.13 192.42Z" fill="#DBDBDB"/>
<path d="M189.94 189.469C189.57 190.215 189.129 190.809 188.688 191.638C188.704 190.641 187.986 188.844 186.6 190.274C185.319 191.237 183.371 195.429 183.362 195.607C183.357 194.47 183.351 193.332 183.344 192.192C186.094 187.717 186.463 188.055 186.869 186.582C187.151 185.402 186.521 183.67 184.786 181.135C185.13 180.304 185.415 179.576 185.628 178.846C185.562 178.905 187.483 182.044 188.302 184.295C189.234 186.576 189.565 188.823 189.94 189.469Z" fill="#DBDBDB"/>
<path d="M188.624 192.047C188.729 193.345 188.767 194.791 188.885 196.314C188.582 196.004 187.781 197.519 187.804 202.023C187.71 206.068 188.44 213.102 188.504 213.235C188.06 212.472 187.65 211.71 187.271 210.996C186.844 202.444 187.045 201.338 186.744 199.776C186.487 198.64 185.818 200.095 184.544 204.276C184.392 203.452 184.229 202.832 184.023 202.373C184.042 202.405 185.569 197.043 186.514 195.258C187.506 193.092 188.285 193.053 188.624 192.047Z" fill="#DBDBDB"/>
<path d="M188.994 196.617C189.434 196.68 189.899 196.982 190.412 197.084C190.15 197.94 190.491 200.548 191.682 202.038C192.746 203.67 195.371 204.549 195.361 204.493C194.989 205.402 194.67 206.183 194.419 206.931C192.342 205.182 191.22 203.994 190.782 204.41C190.484 204.963 190.269 205.645 191.809 211.674C191.578 212.1 191.362 212.617 191.146 213.236C191.103 213.041 189.82 207.538 189.433 203.957C188.894 200.022 189.251 198.009 188.994 196.617Z" fill="#DBDBDB"/>
<path d="M190.543 196.859C190.714 195.599 190.962 194.339 191.159 192.866C191.341 193.983 192.267 193.455 193.084 190.538C193.911 187.966 194.896 181.202 194.876 181.403C195.033 182.351 195.189 183.078 195.379 183.623C194.223 189.304 193.566 192.179 193.571 193.567C193.673 194.579 193.775 195.499 196.309 192.2C196.302 193.36 196.294 194.518 196.286 195.673C196.228 195.699 194.16 197.68 192.944 197.73C191.575 198.098 191.058 196.535 190.543 196.859Z" fill="#DBDBDB"/>
<path d="M190.808 196.186C190.3 197.844 189.465 197.958 188.937 196.474C188.404 194.976 188.386 192.424 188.886 190.79C189.39 189.147 190.215 189.01 190.749 190.476C191.288 191.959 191.314 194.539 190.808 196.186Z" fill="#DBDBDB"/>
<path d="M33.6816 195.436C33.6816 195.436 33.7773 159.372 35.2687 147.568C36.76 135.764 39.4932 129.925 40.1146 129.179C40.736 128.433 43.221 123.091 44.0905 121.599C44.9604 120.108 49.8058 116.132 50.1786 115.511C50.5515 114.89 58.3125 100.758 59.4341 98.6751C59.8688 97.8676 60.2417 95.1339 61.1735 93.705C62.1054 92.276 68.1935 88.0515 80.9294 83.0814C93.6652 78.1112 110.936 76.3718 115.782 76.0614C120.628 75.7509 198.532 75.3781 213.194 78.795C227.856 82.2119 263.246 115.117 267.12 117.934C267.803 118.432 290.106 121.724 296.691 124.954C303.277 128.185 307.625 131.229 307.625 131.229C307.625 131.229 315.515 142.226 315.764 142.536C316.013 142.847 319.367 145.891 319.802 147.071C320.237 148.251 321.853 155.769 322.163 156.514C322.474 157.26 325.083 163.286 325.27 165.585C325.456 167.883 325.27 176.519 325.27 176.891C325.27 177.264 326.263 182.731 326.263 186.521C326.263 190.311 325.58 205.78 325.58 206.805C325.58 207.83 158.896 211.713 158.026 211.464C157.156 211.216 153.056 156.017 127.709 156.017C116.153 156.017 111.477 175.649 115.453 207.084L59.9916 199.753C59.9916 199.753 52.4625 152.644 41.6891 156.464C35.8558 158.532 33.8059 173.723 34.3691 195.675L33.6816 195.436Z" fill="#FFC727"/>
<path d="M326.265 186.521C326.265 190.315 325.581 205.784 325.581 206.804C325.581 207.829 158.899 211.714 158.024 211.467C157.155 211.22 153.058 156.019 127.709 156.019C116.152 156.019 111.477 175.653 115.451 207.083L59.9932 199.752C59.9932 199.752 52.4605 152.645 41.6887 156.468C35.8543 158.536 33.8029 173.724 34.3692 195.678L33.6797 195.436C33.6797 195.436 33.7748 159.37 35.2657 147.567C36.7565 135.763 39.4917 129.923 40.1136 129.178C40.7356 128.432 43.2186 123.091 44.0875 121.601C44.9616 120.11 49.8044 116.13 50.1798 115.514C50.2079 115.469 50.275 115.351 50.3758 115.167C51.6535 112.88 58.3963 100.606 59.4332 98.678C59.8705 97.8652 60.2402 95.1358 61.1763 93.7068C62.1065 92.2778 68.1931 88.0518 80.9269 83.0801C93.6664 78.1146 110.934 76.3716 115.782 76.0632C120.63 75.7491 198.535 75.3794 213.197 78.7927C227.859 82.2117 263.246 115.116 267.119 117.936C267.803 118.434 290.104 121.724 296.689 124.953C303.275 128.186 307.624 131.23 307.624 131.23C307.624 131.23 315.516 142.226 315.762 142.535C316.014 142.849 319.366 145.892 319.803 147.074C320.235 148.251 321.854 155.767 322.163 156.512C322.477 157.258 325.082 163.289 325.268 165.586C325.458 167.884 325.268 176.521 325.268 176.891C325.268 177.267 326.265 182.732 326.265 186.521Z" fill="#FFC727"/>
<path opacity="0.1" d="M326.265 186.52C326.265 190.314 325.581 205.783 325.581 206.803C325.581 207.828 158.899 211.713 158.024 211.466C157.155 211.219 153.058 156.019 127.709 156.019C116.152 156.019 111.477 175.652 115.451 207.083L59.9932 199.752C59.9932 199.752 52.4605 152.645 41.6887 156.467C35.8543 158.535 33.8029 173.724 34.3692 195.677L33.6797 195.436C33.6797 195.436 33.7748 159.37 35.2657 147.566C36.7565 135.763 39.4917 129.923 40.1136 129.177C40.7356 128.432 43.2186 123.091 44.0875 121.6C44.9616 120.109 49.8044 116.13 50.1798 115.513C50.2079 115.469 50.275 115.351 50.3758 115.166L121.123 121.073L134.541 119.487C134.541 119.487 208.472 134.676 214.559 135.332C220.651 135.982 302.098 134.21 304.423 133.746C306.755 133.28 307.623 131.229 307.623 131.229C307.623 131.229 315.515 142.225 315.761 142.534C316.014 142.848 319.365 145.891 319.802 147.073C320.234 148.25 321.854 155.766 322.162 156.511C322.476 157.257 325.082 163.287 325.267 165.585C325.458 167.883 325.267 176.52 325.267 176.89C325.268 177.266 326.265 182.731 326.265 186.52Z" fill="black"/>
<path opacity="0.1" d="M59.9941 199.751C59.9941 199.751 62.9743 165.037 67.634 158.513C72.2937 151.99 103.325 155.706 106.781 160.004C110.972 165.218 113.179 206.782 113.179 206.782L59.9941 199.751Z" fill="black"/>
<path d="M134.542 119.488C134.542 119.488 128.093 95.2175 122.148 82.5852C121.403 81.0007 194.153 77.4673 222.699 82.5852C225.76 83.1338 241.782 93.7912 269.014 117.997C269.573 118.494 252.613 117.531 209.653 117.717C166.693 117.904 136.407 119.674 134.542 119.488Z" fill="#263238"/>
<path d="M137.12 117.806C137.12 117.806 130.916 95.2846 125.197 83.5627C124.48 82.0927 195.588 78.8136 223.049 83.5627C225.994 84.0718 240.287 93.9607 266.484 116.422C267.022 116.883 250.706 115.99 209.378 116.163C168.049 116.336 138.913 117.978 137.12 117.806Z" fill="#37474F"/>
<path opacity="0.4" d="M260.714 116.517C254.061 113.894 244.791 110.268 231.889 105.24C192.937 90.0687 152.196 93.1362 129.396 93.6458C128.506 91.0062 126.079 85.3715 125.199 83.5614C124.481 82.0929 195.588 78.8143 223.05 83.5614C225.993 84.0715 240.29 93.9578 266.486 116.421C266.672 116.579 264.861 116.579 260.714 116.517Z" fill="#455A64"/>
<path d="M127.118 119.114C127.601 118.825 122.658 93.496 116.433 86.7469C108.853 78.5309 80.9898 87.6631 70.0246 93.2079C69.5348 93.4554 62.3052 102.201 62.1658 102.574C62.0259 102.946 61.6999 109.656 62.5849 111.939C63.47 114.223 65.3805 115.853 66.7782 116.459C68.176 117.065 114.258 122.144 116.028 122.19C117.799 122.236 126.652 119.394 127.118 119.114Z" fill="#263238"/>
<path d="M121.192 103.246C119.866 97.0585 116.993 90.8908 114.342 88.0916C107.21 80.5625 80.992 88.9314 70.6741 94.0123C70.2134 94.2396 63.4108 102.253 63.2792 102.595C63.1477 102.937 63.041 108.574 63.8741 110.667C64.7071 112.759 66.5048 114.253 67.8198 114.809C69.1349 115.364 112.392 119.937 114.042 119.701C114.914 119.576 121.474 104.561 121.192 103.246Z" fill="#37474F"/>
<path opacity="0.4" d="M118.009 93.8501C94.0433 93.693 75.7612 101.058 63.2572 106.83C63.1397 104.785 63.2068 102.795 63.2796 102.593C63.4143 102.252 70.2128 94.2369 70.6776 94.0128C80.9903 88.9293 107.209 80.5615 114.344 88.0885C115.582 89.3942 116.86 91.4232 118.009 93.8501Z" fill="#455A64"/>
<path d="M64.7051 113.407C64.8127 112.949 68.6576 105.24 69.9935 102.631C71.3294 100.022 77.0135 90.8894 77.2002 90.827C77.3863 90.7651 79.2037 89.8245 79.0862 90.1167C78.9687 90.4089 72.1437 101.708 71.671 102.827C70.9555 104.52 66.6426 114.98 66.6426 114.98L64.7051 113.407Z" fill="#263238"/>
<path d="M86.2246 117.379C86.2246 117.379 88.3681 107.353 90.4179 100.69C92.4683 94.0267 96.5217 85.5237 96.6153 85.4769C96.7089 85.4301 101.088 84.8477 101.228 84.8477C101.368 84.8477 96.3667 96.5118 95.1244 100.395C93.8821 104.277 91.9405 118.038 91.8396 118.038C91.7382 118.038 86.613 117.433 86.2246 117.379Z" fill="#263238"/>
<g opacity="0.2">
<path d="M98.5726 85.5156C97.582 88.1151 96.556 90.7 95.5301 93.2849C94.6653 95.5776 93.2171 98.7392 92.5921 101.064C91.3441 105.725 90.1564 112.583 89.1855 117.379C89.9707 111.869 90.8496 106.362 92.2166 100.961C93.9654 95.6697 96.3813 90.635 98.5726 85.5156Z" fill="black"/>
</g>
<g opacity="0.2">
<path d="M77.7916 90.8594C75.9705 94.0948 73.2223 98.7291 71.3009 101.972C69.5298 105.169 67.4378 110.278 65.8633 113.629C67.4987 109.664 69.0431 105.633 71.0711 101.851C73.0273 98.6089 75.7922 94.0137 77.7916 90.8594Z" fill="black"/>
</g>
<path d="M301.04 146.263C301.943 146.457 307.625 152.29 307.625 153.159C307.625 154.029 298.058 173.039 294.455 175.773C290.851 178.507 237.796 178.382 236.429 178.009C235.062 177.637 216.673 157.259 216.3 155.644C215.927 154.029 223.631 147.692 224.749 147.568C225.868 147.444 298.431 145.703 301.04 146.263Z" fill="#263238"/>
<path d="M307.624 153.159C307.624 153.439 306.643 155.574 305.186 158.444C304.536 159.739 303.785 161.179 302.989 162.664C302.065 164.379 301.078 166.156 300.092 167.837C299.268 169.244 298.449 170.578 297.676 171.749C296.415 173.666 295.277 175.146 294.453 175.774C290.85 178.509 237.796 178.38 236.428 178.01C235.996 177.887 233.85 175.763 231.109 172.86C229.994 171.671 228.772 170.348 227.528 168.987C226.099 167.423 224.647 165.803 223.274 164.245C221.878 162.665 220.573 161.152 219.474 159.845C217.641 157.665 216.397 156.051 216.302 155.642C216.263 155.468 216.313 155.244 216.442 154.98C216.924 153.96 218.499 152.34 220.164 150.872C222.125 149.14 224.211 147.627 224.749 147.566C225.87 147.442 298.433 145.705 301.04 146.265C301.499 146.36 303.175 147.896 304.716 149.51C306.022 150.867 307.232 152.268 307.546 152.907C307.596 153.013 307.624 153.097 307.624 153.159Z" fill="#263238"/>
<path d="M307.545 152.906C304.67 153.371 298.875 154.284 297.625 154.341C295.944 154.413 232.673 155.529 230.341 155.439C228.705 155.372 220.936 155.125 216.441 154.98C216.923 153.959 218.499 152.34 220.163 150.872C224.115 151.286 228.901 151.712 229.596 151.712C230.711 151.712 294.828 150.984 296.415 150.973C297.457 150.967 301.84 150.098 304.715 149.51C306.021 150.866 307.231 152.267 307.545 152.906Z" fill="#37474F"/>
<path d="M305.187 158.443C304.537 159.738 303.785 161.179 302.99 162.664C300.641 163.017 298.36 163.342 297.626 163.376C295.945 163.454 232.674 164.569 230.342 164.474C229.406 164.44 226.464 164.339 223.275 164.244C221.879 162.664 220.573 161.15 219.475 159.844C223.538 160.27 228.862 160.746 229.596 160.746C230.712 160.746 294.829 160.024 296.415 160.012C297.514 160.007 302.351 159.032 305.187 158.443Z" fill="#37474F"/>
<path d="M300.09 167.838C299.267 169.244 298.448 170.578 297.675 171.75C297.658 171.756 297.641 171.756 297.624 171.756C296.027 171.823 238.742 172.843 231.109 172.86C229.993 171.671 228.771 170.348 227.527 168.987C228.587 169.071 229.349 169.126 229.595 169.126C230.711 169.126 294.828 168.398 296.414 168.392C296.957 168.387 298.414 168.146 300.09 167.838Z" fill="#37474F"/>
<path d="M34.3696 195.677C34.3696 195.677 32.9806 152.215 40.8706 148.252C48.7606 144.289 53.7172 157.074 56.5751 164.902C59.433 172.73 62.0424 185.403 62.6014 185.528C63.1604 185.652 113.172 193.045 113.42 192.983C113.669 192.921 113.016 154.527 124.665 148.314C135.187 142.703 144.118 154.229 149.702 163.722C157.053 176.216 162.827 203.288 163.06 203.288C165.575 203.288 211.891 202.612 212.357 202.519C212.823 202.426 226.894 192.827 228.105 192.641C229.317 192.455 301.818 190.125 303.309 190.125C304.8 190.125 314.957 199.071 315.423 199.071C315.889 199.071 326.109 198.838 326.264 198.884C326.42 198.931 326.233 206.992 326.047 207.178C325.861 207.365 157.057 213.101 157.15 212.298C157.243 211.495 149.893 183.258 142.092 167.853C135.942 155.707 124.479 150.079 120.286 167.667C116.14 185.058 115.92 206.806 115.454 207.086C114.988 207.366 61.018 200.625 59.9931 199.755C58.9682 198.885 52.9107 156.236 42.8461 156.422C32.7815 156.609 35.2047 195.903 35.2047 195.903L34.3696 195.677Z" fill="#263238"/>
<path d="M312.492 185.093C313.044 184.965 324.4 179.875 324.835 179.036C325.27 178.197 325.301 169.531 324.835 169.624C324.369 169.717 316.262 176.754 315.702 177.36C315.143 177.966 311.612 185.297 312.492 185.093Z" fill="#263238"/>
<path d="M313.185 187.096C313.038 186.654 324.764 182.436 325.172 182.343C325.579 182.25 326.045 187.886 325.672 188.376C325.299 188.866 317.192 190.357 316.54 190.171C315.887 189.984 313.465 187.934 313.185 187.096Z" fill="#263238"/>
<path d="M63.7812 178.845L110.5 186.024C110.5 186.024 108.015 182.234 105.53 180.992C103.045 179.75 76.6414 172.791 71.7336 173.102C66.8253 173.412 63.7812 178.845 63.7812 178.845Z" fill="#FFC727"/>
<path d="M36.3223 155.211C36.3223 155.211 37.3784 145.146 41.4786 142.475C45.8799 139.607 49.9275 143.034 53.2826 149.806C56.0022 155.295 58.6256 168.568 58.6256 168.568C58.6256 168.568 53.5618 152.415 47.4674 147.536C44.9974 145.558 41.8051 146.155 40.112 147.88C37.5027 150.538 36.3223 155.211 36.3223 155.211Z" fill="#FFC727"/>
<path d="M51.3555 122.199C57.4436 122.967 76.9514 126.881 85.5247 128.869C94.0979 130.857 119.259 137.362 119.259 137.362C119.259 137.362 113.233 138.374 111.742 138.312C110.251 138.25 68.3782 131.105 65.7069 130.671C63.0352 130.235 51.3555 122.199 51.3555 122.199Z" fill="#FFC727"/>
<g opacity="0.1">
<path d="M157.158 130.671C152.394 129.883 147.675 128.877 142.969 127.8C140.197 127.066 137.328 126.548 134.673 125.415C134.556 125.355 134.35 125.223 134.378 125.028L134.38 124.915L134.417 123.106C134.46 121.9 134.485 120.694 134.544 119.488C134.603 120.694 134.628 121.9 134.671 123.106C134.677 123.202 134.706 125.039 134.713 125.074C134.725 125.055 134.686 125.014 134.703 125.029C134.838 125.13 135.059 125.209 135.234 125.274C137.803 126.098 140.454 126.672 143.088 127.296C147.062 128.234 153.241 129.672 157.158 130.671Z" fill="black"/>
<path d="M63.4722 113.904C61.2065 116.561 58.8655 119.186 56.5401 121.802C56.4563 121.9 56.1241 122.261 56.0507 122.344C56.0154 122.417 55.9811 122.528 55.9535 122.634C55.6841 123.581 55.7075 124.584 55.3664 125.539C54.2895 127.346 53.0644 129.157 52.1882 131.063C51.8918 131.648 51.9152 132.629 51.8117 133.279C51.2948 137.731 50.6141 142.706 49.9277 147.134C50.3318 142.416 50.9719 136.798 51.4576 132.072C51.4643 131.713 51.5631 131.217 51.7295 130.873C52.3603 129.419 53.198 128.112 54.0264 126.777C54.2292 126.462 54.7585 125.617 54.9483 125.307C55.2603 124.341 55.2531 123.204 55.6249 122.207C55.6488 122.12 55.7892 121.975 55.8573 121.903C58.371 119.219 60.8925 116.538 63.4722 113.904Z" fill="black"/>
<path d="M86.5172 119.018C85.082 121.624 82.8616 125.028 81.6942 127.703C81.6994 128.837 81.8054 130.863 81.8356 132.019C81.8299 132.884 81.9328 133.753 81.7498 134.652C81.5012 135.204 81.2896 136.177 81.1279 136.773C80.5616 139.078 79.9672 141.419 79.5939 143.758C79.4493 145.411 79.4186 153.902 79.375 155.707C79.2122 151.706 79.0006 147.717 79.1467 143.708C79.5039 141.315 80.0692 138.995 80.624 136.646C80.8003 136.011 81.0208 135.06 81.2865 134.47C81.4134 133.711 81.3614 132.847 81.3629 132.028C81.3484 130.841 81.2418 128.837 81.2839 127.665C82.6307 124.683 84.7601 121.773 86.5172 119.018Z" fill="black"/>
<path d="M122.145 120.109C121.19 122.769 119.245 128.082 118.26 130.727C117.63 132.492 116.922 134.274 116.356 136.018C116.249 136.417 116.284 136.902 116.288 137.362C116.315 138.227 116.414 139.342 116.392 140.209C115.804 142.489 115.304 144.811 114.884 147.134C114.556 149.021 114.742 150.852 114.594 152.739C114.446 156.505 114.275 160.27 114.043 164.033L114.098 158.379C114.137 155.743 114.241 151.09 114.249 148.512C114.454 146.115 115.047 143.841 115.531 141.497C115.6 141.205 115.783 140.48 115.872 140.287C115.873 140.291 115.882 140.214 115.886 140.175C115.912 139.394 115.824 138.18 115.804 137.374C115.653 135.938 116.411 134.537 116.865 133.222C118.553 128.823 120.317 124.453 122.145 120.109Z" fill="black"/>
</g>
<path d="M172.564 167.946C172.564 167.946 205.243 174.397 210.213 177.074C215.183 179.75 223.011 184.61 223.011 184.61C223.011 184.61 247.084 184.61 271.842 184.61C296.816 184.61 305.887 181.366 305.887 181.366C305.887 181.366 313.218 169.686 315.081 167.947C316.945 166.207 323.655 162.182 323.655 162.182C323.655 162.182 323.655 164.358 322.537 165.655C321.418 166.953 317.318 169.811 316.448 170.805C315.578 171.799 309.615 183.603 309.49 184.1C309.366 184.597 309.242 187.33 308.62 187.703C307.999 188.076 221.768 190.686 220.153 190.189C218.538 189.691 208.349 181.367 205.615 180.497C202.881 179.627 173.807 171.426 173.807 171.426L172.564 167.946Z" fill="#FFC727"/>
<path d="M166.725 181.49C166.849 180.496 173.061 171.798 173.807 171.426C174.553 171.053 205.367 179.898 207.231 180.445C209.095 180.993 214.562 186.336 214.562 186.833C214.561 187.33 166.725 181.49 166.725 181.49Z" fill="#263238"/>
<path d="M167.719 184.643C167.558 184.088 213.444 190.56 213.568 191.057C213.692 191.554 207.48 195.779 206.237 195.779C204.995 195.779 177.535 194.164 175.92 193.294C174.304 192.424 168.092 185.933 167.719 184.643Z" fill="#263238"/>
<path d="M72.0742 86.8862C72.0742 86.8862 85.6187 78.0919 101.368 74.9236C117.117 71.7552 122.33 74.8632 123.73 75.9183C125.131 76.9734 127.151 80.8562 127.151 80.8562L122.894 81.3534C122.894 81.3534 121.124 77.0665 114.787 76.4144C110.224 75.9448 86.5167 78.9307 72.0742 86.8862Z" fill="#263238"/>
<path d="M222.699 82.5838C222.699 82.5838 216.114 76.9688 210.088 75.868C204.061 74.7671 184.43 76.5689 184.43 76.5689C184.43 76.5689 200.596 76.5279 208.286 77.9111C213.194 78.794 219.238 82.0341 219.238 82.0341L222.699 82.5838Z" fill="#263238"/>
<path d="M118.092 115.14C118.7 115.14 120.626 115.14 121.061 115.14C121.496 115.14 122.142 117.687 122.142 118.432C122.142 119.178 120.313 122.387 120.117 122.191C119.921 121.995 106.834 122.191 104.908 122.191C102.982 122.191 94.533 120.572 93.4145 119.502C92.2965 118.432 91.3023 114.969 91.4265 113.905C91.5508 112.841 95.8996 109.113 100.248 107.684C104.597 106.256 112.239 106.504 113.667 106.628C115.096 106.753 117.47 111.815 117.892 112.871C118.315 113.928 118.092 115.14 118.092 115.14Z" fill="#263238"/>
<path opacity="0.3" d="M118.092 115.14C118.7 115.14 120.626 115.14 121.061 115.14C121.496 115.14 122.142 117.687 122.142 118.432C122.142 119.178 120.313 122.387 120.117 122.191C119.921 121.995 106.834 122.191 104.908 122.191C102.982 122.191 94.533 120.572 93.4145 119.502C92.2965 118.432 91.3023 114.969 91.4265 113.905C91.5508 112.841 95.8996 109.113 100.248 107.684C104.597 106.256 112.239 106.504 113.667 106.628C115.096 106.753 117.47 111.815 117.892 112.871C118.315 113.928 118.092 115.14 118.092 115.14Z" fill="black"/>
<path d="M116.746 113.906C116.651 114.752 114.79 118.114 114.039 118.182C106.775 118.866 95.9916 117.997 92.3094 117.655C91.7265 116.265 91.3454 114.589 91.4296 113.906C91.5528 112.841 95.9021 109.114 100.251 107.684C104.601 106.255 112.24 106.502 113.669 106.625C114.101 106.665 114.611 107.146 115.132 107.83C115.137 107.836 115.137 107.847 115.143 107.852C117.177 111.961 116.836 113.06 116.746 113.906Z" fill="#FFC727"/>
<path d="M103.696 118.438L92.4099 117.886L92.4042 117.875C92.1858 117.382 91.9892 116.844 91.8379 116.322C93.4691 116.423 101.292 116.76 101.925 116.973C102.626 117.202 103.696 118.438 103.696 118.438Z" fill="#DBDBDB"/>
<path d="M288.617 196.102L243.668 196.908V185.098L288.617 184.291V196.102Z" fill="white"/>
<path d="M205.241 153.781C205.997 153.781 218.163 145.456 218.785 144.586C219.406 143.716 160.014 129.676 158.274 129.552C156.535 129.428 147.589 132.783 147.837 133.528C148.086 134.274 156.286 145.456 159.765 147.444C163.244 149.432 201.886 153.781 205.241 153.781Z" fill="white"/>
<path d="M218.784 144.585C218.627 144.809 217.719 145.515 216.442 146.441V146.446C212.703 149.159 205.81 153.783 205.244 153.783C201.886 153.783 163.242 149.434 159.768 147.444C158.725 146.85 157.268 145.437 155.727 143.728C152.101 139.71 148.014 134.049 147.835 133.528C147.589 132.783 156.534 129.431 158.277 129.554C160.014 129.677 219.406 143.716 218.784 144.585Z" fill="white"/>
<path d="M216.442 146.44V146.446C212.703 149.159 205.81 153.782 205.244 153.782C201.886 153.782 163.242 149.433 159.767 147.444C158.725 146.85 157.268 145.437 155.727 143.728C157.133 141.996 162.928 134.901 164.61 135.029C183.309 136.46 215.556 146.087 216.442 146.44Z" fill="#EBEBEB"/>
<path d="M168.804 141.648C168.871 145.088 164.544 147.058 161.996 144.652C160.262 143.128 160.262 140.16 161.995 138.642C164.543 136.233 168.872 138.207 168.804 141.648ZM168.804 141.648C168.813 138.402 164.748 136.877 162.629 139.276C160.654 141.374 162.107 145.022 165.001 145.192C166.968 145.399 168.849 143.656 168.804 141.648Z" fill="white"/>
<path d="M178.375 141.666C178.435 144.69 174.637 146.442 172.38 144.334C170.829 142.987 170.83 140.338 172.378 138.996C174.635 136.886 178.437 138.641 178.375 141.666ZM178.375 141.666C178.232 137.564 172.358 137.636 172.24 141.666C172.355 145.702 178.233 145.768 178.375 141.666Z" fill="white"/>
<path d="M303.774 143.716C303.268 144.434 310.235 151.668 310.732 151.668C311.23 151.668 318.933 148.313 319.803 147.071C320.673 145.828 318.063 137.255 317.566 136.385C317.069 135.516 309.753 134.192 309.863 134.344C309.972 134.496 304.939 142.066 303.774 143.716Z" fill="white"/>
<path d="M319.803 147.073C319.591 147.381 318.957 147.818 318.111 148.3C315.19 149.399 311.267 150.811 310.718 150.638C308.174 149.836 304.475 143.671 304.475 143.671C306.851 141.737 312.859 135.684 313.263 134.934C315.207 135.359 317.309 135.931 317.567 136.385C318.066 137.254 320.672 145.829 319.803 147.073Z" fill="#EBEBEB"/>
<path d="M318.406 141.3C318.372 145.855 313.762 145.661 313.6 141.3C313.759 136.933 318.374 136.743 318.406 141.3ZM318.406 141.3C318.246 137.614 314.668 137.448 314.639 141.3C314.664 145.158 318.248 144.987 318.406 141.3Z" fill="white"/>
<path d="M58.501 133.861L56.5525 133.601C55.5162 133.462 54.7887 132.51 54.927 131.474L55.1662 129.683C55.3045 128.647 56.2572 127.92 57.293 128.058L59.2415 128.318C60.2778 128.457 61.0053 129.409 60.867 130.445L60.6278 132.236C60.4895 133.271 59.5373 133.999 58.501 133.861Z" fill="#FFC727"/>
<path d="M61.886 132.604L53.7823 131.52C53.4984 131.482 53.2987 131.221 53.3367 130.937L53.4521 130.075C53.4901 129.791 53.7511 129.592 54.035 129.63L62.1387 130.712C62.4226 130.75 62.6223 131.011 62.5843 131.295L62.4689 132.158C62.4309 132.442 62.1699 132.641 61.886 132.604Z" fill="#FFC727"/>
<g opacity="0.2">
<path d="M61.886 132.604L53.7823 131.52C53.4984 131.482 53.2987 131.221 53.3367 130.937L53.4521 130.075C53.4901 129.791 53.7511 129.592 54.035 129.63L62.1387 130.712C62.4226 130.75 62.6223 131.011 62.5843 131.295L62.4689 132.158C62.4309 132.442 62.1699 132.641 61.886 132.604Z" fill="white"/>
</g>
<path d="M87.335 138.707L85.3865 138.446C84.3502 138.308 83.6227 137.355 83.761 136.319L84.0002 134.529C84.1385 133.493 85.0912 132.765 86.127 132.904L88.0755 133.164C89.1118 133.302 89.8393 134.255 89.701 135.291L89.4618 137.081C89.324 138.118 88.3713 138.846 87.335 138.707Z" fill="#FFC727"/>
<path d="M90.72 137.45L82.6163 136.367C82.3324 136.329 82.1327 136.068 82.1706 135.784L82.2861 134.921C82.324 134.637 82.5851 134.437 82.869 134.475L90.9727 135.558C91.2566 135.596 91.4563 135.857 91.4183 136.141L91.3029 137.004C91.2649 137.288 91.0039 137.488 90.72 137.45Z" fill="#FFC727"/>
<g opacity="0.2">
<path d="M90.72 137.45L82.6163 136.367C82.3324 136.329 82.1327 136.068 82.1706 135.784L82.2861 134.921C82.324 134.637 82.5851 134.437 82.869 134.475L90.9727 135.558C91.2566 135.596 91.4563 135.857 91.4183 136.141L91.3029 137.004C91.2649 137.288 91.0039 137.488 90.72 137.45Z" fill="white"/>
</g>
<path d="M262.55 174.379C262.55 174.379 243.57 189.718 243.556 189.728C239.911 192.643 236.768 195.263 235.268 196.77C235.258 196.776 235.249 196.783 235.244 196.795C234.677 197.362 234.35 197.767 234.333 197.963C234.33 197.979 234.324 197.991 234.327 198.003C234.459 199.675 256.899 229.485 258.032 230.261C259.164 231.044 261.466 227.87 261.518 226.019C261.563 224.157 258.079 208.907 258.079 208.907L276.905 193.394L262.55 174.379Z" fill="#D3766A"/>
<path d="M261.521 226.017C261.469 227.873 259.163 231.046 258.029 230.264C256.903 229.483 234.461 199.674 234.324 198.006C234.324 197.993 234.33 197.98 234.33 197.967C234.35 197.765 234.676 197.361 235.243 196.794C235.249 196.781 235.256 196.775 235.269 196.768C236.135 195.896 237.562 194.645 239.32 193.186C243.841 201.726 257.163 219.718 259.098 221.639C260.654 223.177 260.049 218.454 259.56 215.575C260.505 219.933 261.541 224.994 261.521 226.017Z" fill="#263238"/>
<path d="M272.814 156.101C271.47 162.742 243.918 189.24 243.918 189.24L263.127 211.412C263.127 211.412 302.244 172.365 300.203 157.692C298.427 144.929 279.32 93.6055 279.32 93.6055H257.275C257.275 93.6055 274.136 149.571 272.814 156.101Z" fill="#455A64"/>
<path d="M265.312 206.14C262.759 202.963 263.536 203.839 260.949 200.69C259.683 199.15 251.352 189.033 249.918 187.803C249.886 187.776 249.833 187.82 249.855 187.856C250.815 189.483 259.321 199.452 260.617 200.969C263.265 204.067 262.538 203.148 265.221 206.216C265.271 206.274 265.359 206.2 265.312 206.14Z" fill="#263238"/>
<path d="M276.602 153.915C276.287 152.257 275.928 150.606 275.577 148.955C274.86 145.583 274.103 142.221 273.302 138.869C271.715 132.219 269.997 125.606 268.124 119.032C266.244 112.434 264.258 105.849 261.97 99.3809C261.688 98.5816 261.396 97.785 261.105 96.9889C261.083 96.9286 260.989 96.9556 261.008 97.018C262.989 103.498 265.031 109.959 266.889 116.476C268.739 122.967 270.45 129.491 272.065 136.045C272.875 139.335 273.629 142.638 274.366 145.945C274.729 147.57 275.082 149.196 275.428 150.825C275.778 152.477 276.248 154.165 276.351 155.854C276.452 157.515 275.91 158.986 275.055 160.385C274.229 161.737 273.256 163.009 272.317 164.284C270.433 166.838 252.491 186.832 251.913 187.375C251.868 187.418 251.937 187.482 251.983 187.441C254.391 185.28 269.614 168.801 271.548 166.251C272.504 164.989 273.436 163.709 274.352 162.418C275.208 161.209 276.068 159.975 276.541 158.558C277.05 157.036 276.898 155.464 276.602 153.915Z" fill="#263238"/>
<path d="M274.79 93.6074L272.599 152.018C270.463 137.374 257.277 93.6074 257.277 93.6074H274.79Z" fill="#263238"/>
<path d="M266.055 201.746C266.055 201.746 270.813 224.917 270.813 224.934C270.876 229.601 271.016 233.691 271.285 235.8C271.284 235.811 271.284 235.823 271.29 235.834C271.39 236.63 271.51 237.137 271.654 237.271C271.664 237.282 271.67 237.294 271.681 237.3C273.082 238.222 310.39 238.801 311.698 238.383C313.011 237.971 311.918 234.205 310.488 233.028C309.046 231.85 294.867 225.24 294.867 225.24L289.877 202.084L266.055 201.746Z" fill="#D3766A"/>
<path d="M311.7 238.381C310.391 238.798 273.084 238.219 271.684 237.3C271.671 237.294 271.664 237.281 271.651 237.268C271.507 237.138 271.39 236.629 271.286 235.834V235.802C271.104 234.401 270.987 232.134 270.908 229.398C279.657 231.535 303.42 233.469 306.45 232.708C308.138 232.283 306 230.89 303.766 229.483C306.932 231.027 309.876 232.519 310.489 233.027C311.915 234.206 313.009 237.971 311.7 238.381Z" fill="#263238"/>
<path d="M277.195 93.6055C277.17 94.0683 274.953 112.953 274.338 113.461C273.641 114.034 269.767 116.627 268.593 117.342C268.593 117.342 279.16 150.261 281.963 161.236C286.026 177.148 295.759 224.885 295.759 224.885L269.827 224.881C269.827 224.881 261.943 179.436 258.496 164.287C255.54 151.3 244.219 112.34 244.219 112.34C241.738 101.961 245.136 93.6055 245.136 93.6055C245.136 93.6055 277.198 93.5878 277.195 93.6055Z" fill="#455A64"/>
<path d="M294.82 219.838C290.745 219.816 291.914 219.766 287.84 219.789C285.845 219.801 272.74 219.89 270.882 220.228C270.841 220.235 270.842 220.305 270.883 220.31C272.751 220.59 285.852 220.273 287.846 220.223C291.92 220.12 290.749 220.106 294.822 219.957C294.899 219.954 294.897 219.839 294.82 219.838Z" fill="#263238"/>
<path d="M275.487 112.506C272.96 113.839 270.585 115.544 268.334 117.294C268.245 117.363 268.332 117.503 268.43 117.442C270.854 115.923 273.338 114.444 275.675 112.794C275.859 112.664 275.681 112.403 275.487 112.506Z" fill="#263238"/>
<path d="M273.508 94.5924C273.487 94.504 273.327 94.5087 273.342 94.6054C273.842 97.6859 274.067 100.43 274.254 103.352C274.341 104.709 274.412 112.271 272.008 112.092C271.606 112.062 271.348 111.71 271.196 111.134C271.014 110.441 271.145 109.537 271.152 108.819C271.17 107.23 271.135 105.645 271.026 104.061C270.821 101.104 270.38 98.183 269.573 95.3282C269.547 95.2346 269.41 95.2632 269.425 95.3599C270.056 99.4003 270.576 103.45 270.593 107.546C270.602 109.514 270.083 112.56 272.14 112.544C274.236 112.527 274.808 107.471 274.852 106.106C274.975 102.295 274.382 98.2932 273.508 94.5924Z" fill="#263238"/>
<path d="M272.101 112.28C271.968 112.81 271.88 113.353 271.817 113.894C271.768 114.315 271.684 114.774 271.795 115.188C271.817 115.268 271.926 115.259 271.961 115.197C272.18 114.81 272.221 114.32 272.31 113.888C272.413 113.386 272.527 112.887 272.615 112.382C272.674 112.047 272.182 111.954 272.101 112.28Z" fill="#263238"/>
<path d="M266.974 206.147C266.905 205.547 266.824 204.947 266.74 204.349C266.577 203.2 266.384 202.056 266.207 200.908C265.853 198.603 265.457 196.305 265.049 194.009C264.236 189.43 263.296 184.866 262.306 180.322C261.746 177.753 261.094 175.215 260.408 172.678C260.36 172.501 260.11 172.586 260.141 172.758C260.559 175.081 260.96 177.405 261.436 179.716C261.909 182.021 262.382 184.326 262.84 186.634C263.745 191.196 264.589 195.77 265.492 200.333C265.746 201.621 265.978 202.913 266.229 204.202C266.354 204.844 266.484 205.487 266.623 206.127C266.76 206.765 266.96 207.393 267.065 208.037C267.075 208.098 267.167 208.069 267.157 208.01C267.056 207.394 267.045 206.766 266.974 206.147Z" fill="#263238"/>
<path d="M284.693 171.096C283.829 166.793 282.665 162.546 281.494 158.32C279.138 149.81 276.364 141.425 273.596 133.042C272.799 130.627 268.849 118.078 268.607 117.46C268.582 117.397 268.489 117.423 268.506 117.49C269.066 119.708 271.821 129.462 272.494 131.622C273.819 135.868 275.166 140.106 276.452 144.363C278.994 152.777 281.519 161.188 283.582 169.737C284.16 172.13 284.735 174.522 285.263 176.927C285.79 179.329 286.241 181.746 286.744 184.152C286.757 184.217 286.868 184.2 286.861 184.133C286.428 179.748 285.559 175.412 284.693 171.096Z" fill="#263238"/>
<path d="M268.572 193.605C267.144 185.396 265.435 177.232 263.54 169.12C261.637 160.967 259.517 152.865 257.182 144.826C254.846 136.787 252.258 128.819 249.479 120.923C248.162 117.18 246.822 113.431 245.957 109.552C245.102 105.718 244.668 101.57 245.561 97.7025C245.788 96.7192 246.073 95.7592 246.447 94.8217C246.473 94.7572 246.379 94.7021 246.351 94.7681C243.232 102.035 245.256 109.983 247.63 117.147C248.931 121.072 250.319 124.968 251.602 128.899C252.919 132.934 254.18 136.987 255.388 141.057C257.781 149.121 260.003 157.234 261.993 165.407C263.983 173.579 265.756 181.803 267.315 190.067C268.881 198.362 270.197 206.69 271.532 215.023C271.705 216.107 271.843 217.196 271.985 218.285C271.992 218.345 272.088 218.344 272.081 218.283C271.082 210.026 269.997 201.801 268.572 193.605Z" fill="#263238"/>
<path d="M263.245 42.5293C257.965 45.2094 257.155 52.8706 258.021 63.6762C258.153 65.3178 272.205 67.5221 278.698 62.1312C279.747 61.2597 277.582 48.0949 274.731 44.407C271.193 39.8316 266.515 40.8695 263.245 42.5293Z" fill="#263238"/>
<path d="M263.103 42.6466C260.346 44.2149 258.668 47.1539 257.993 50.1902C257.502 52.4023 257.341 54.7553 257.194 57.0121C257.052 59.1795 257.002 61.4082 257.398 63.5511C257.412 63.6275 257.522 63.613 257.517 63.536C257.269 59.4535 257.566 55.3211 258.214 51.2817C258.758 47.8877 260.343 44.8015 263.221 42.8499C263.33 42.7755 263.22 42.5795 263.103 42.6466Z" fill="#263238"/>
<path d="M276.957 48.0277C275.806 44.6332 273.473 42.2771 270.094 41.3229C270.073 41.3171 270.063 41.3541 270.084 41.3613C273.75 42.6093 275.912 45.3607 277.01 49.0891C278.205 53.1456 278.812 57.2921 279.348 61.4775C279.36 61.5717 279.494 61.5529 279.488 61.4593C279.216 56.9967 278.396 52.2647 276.957 48.0277Z" fill="#263238"/>
<path d="M267.668 71.0874C273.141 82.3828 280.091 94.6132 286.595 96.5336C292.782 98.3598 308.131 83.2928 310.816 78.2124C311.742 76.461 299.023 68.322 297.317 69.5778C294.101 71.9454 288.201 79.5103 287.231 79.2831C286.22 79.0423 278.17 71.3651 270.858 64.8869C266.425 60.9604 263.876 63.2629 267.668 71.0874Z" fill="#D3766A"/>
<path d="M305.358 82.164C305.358 82.164 311.128 80.4423 314.848 79.1386C316.924 78.4111 320.371 76.847 321.651 75.6156C323.567 73.7733 330.4 64.8443 328.271 63.1413C326.344 61.5995 321.447 70.0157 321.447 70.0157C321.447 70.0157 327.139 61.9599 324.477 60.5299C321.815 59.0999 317.547 69.3444 317.547 69.3444C317.547 69.3444 323.21 60.936 320.231 59.896C317.981 59.1098 313.592 68.1708 313.592 68.1708C313.592 68.1708 318.409 60.91 316.13 60.0021C313.61 58.9985 309.035 67.1079 309.035 67.1079C302.851 65.7746 298.463 68.5499 296.225 70.4822C295.704 70.9325 305.358 82.164 305.358 82.164Z" fill="#D3766A"/>
<path d="M319.913 72.5379C324.559 66.924 325.117 62.7479 325.08 62.8555C324.198 65.4056 322.038 68.9531 321.42 69.9348C320.803 70.914 320.492 71.5354 319.875 72.5156C319.859 72.5405 319.895 72.5593 319.913 72.5379Z" fill="#263238"/>
<path d="M316.073 70.7592C318.445 68.2445 320.287 64.6502 320.727 63.3128C320.763 63.2046 320.71 63.2166 320.651 63.3149C319.899 64.5847 316.852 69.5138 316.042 70.7415C316.03 70.7602 316.058 70.7758 316.073 70.7592Z" fill="#263238"/>
<path d="M312.662 69.4494C314.614 67.0413 315.245 65.7657 316.095 63.5781C316.136 63.473 316.052 63.4923 315.996 63.5926C314.892 65.566 314.039 67.1219 312.599 69.4016C312.576 69.4369 312.631 69.4868 312.662 69.4494Z" fill="#263238"/>
<path d="M294.421 71.4319L306.245 84.811C306.245 84.811 292.845 98.8895 286.823 97.1771C280.8 95.4648 269.853 78.6599 266.51 68.107C264.197 60.8052 268.177 62.0943 272.28 65.7702C276.383 69.446 287.129 78.5876 287.616 78.4727C288.103 78.3578 294.421 71.4319 294.421 71.4319Z" fill="#FFC727"/>
<g opacity="0.5">
<path d="M294.421 71.4319L306.245 84.811C306.245 84.811 292.845 98.8895 286.823 97.1771C280.8 95.4648 269.853 78.6599 266.51 68.107C264.197 60.8052 268.177 62.0943 272.28 65.7702C276.383 69.446 287.129 78.5876 287.616 78.4727C288.103 78.3578 294.421 71.4319 294.421 71.4319Z" fill="white"/>
</g>
<path opacity="0.1" d="M266.508 68.1083C269.851 78.657 280.8 95.4624 286.824 97.1768C289.483 97.9355 293.59 95.6069 297.343 92.7683C297.343 92.7683 297.349 92.7625 297.343 92.7625C291.359 86.1819 275.388 70.2049 268.159 63.0107C266.12 62.2864 265.037 63.4507 266.508 68.1083Z" fill="black"/>
<path d="M302.203 86.8412C300.488 84.9936 293.745 77.1765 292.402 75.3892C292.309 75.2655 292.365 75.176 292.479 75.2925C297.752 80.7052 300.684 84.873 302.274 86.771C302.314 86.8188 302.247 86.8885 302.203 86.8412Z" fill="#263238"/>
<path d="M246.766 94.1008L279.505 94.093L276.974 84.4231C276.974 84.4231 279.109 80.493 278.471 77.8555C277.777 74.9919 273.978 68.8782 271.726 66.1706C266.238 59.5749 261.469 62.5566 259.948 64.2534C254.138 70.7331 246.766 94.1008 246.766 94.1008Z" fill="#FFC727"/>
<path opacity="0.5" d="M246.766 94.1008L279.505 94.093L276.974 84.4231C276.974 84.4231 279.109 80.493 278.471 77.8555C277.777 74.9919 273.978 68.8782 271.726 66.1706C266.238 59.5749 261.469 62.5566 259.948 64.2534C254.138 70.7331 246.766 94.1008 246.766 94.1008Z" fill="white"/>
<path d="M267.587 83.3516C268.97 83.3084 270.364 83.312 271.74 83.4738C272.425 83.5544 273.101 83.6662 273.778 83.7925C274.115 83.8554 274.453 83.9074 274.793 83.9574C275.141 84.0088 275.514 84.0499 275.866 84.014C275.898 84.0109 275.903 84.0582 275.872 84.0629C275.532 84.118 275.206 84.17 274.861 84.1794C274.533 84.1888 274.202 84.1628 273.876 84.1274C273.18 84.052 272.489 83.9449 271.795 83.8627C270.395 83.6963 268.994 83.531 267.585 83.466C267.52 83.4639 267.522 83.3536 267.587 83.3516Z" fill="#263238"/>
<path d="M264.367 85.0188C265.474 84.7536 266.61 84.5378 267.74 84.3995C268.308 84.3303 268.876 84.2944 269.448 84.2731C269.721 84.2627 269.994 84.258 270.267 84.2559C270.568 84.2539 270.87 84.2923 271.17 84.2856C271.201 84.2851 271.208 84.3329 271.175 84.3345C270.892 84.349 270.61 84.4104 270.328 84.4416C270.045 84.4728 269.761 84.5019 269.479 84.5326C268.911 84.595 268.345 84.6631 267.777 84.7198C266.64 84.8337 265.51 84.9585 264.378 85.1113C264.317 85.1207 264.31 85.0328 264.367 85.0188Z" fill="#263238"/>
<path d="M258.248 66.1598C250.89 78.8561 239.888 107.991 237.901 112.159C236.553 114.987 251.34 122.443 251.968 120.386C252.772 117.752 263.035 83.8159 263.704 68.6756C264.014 61.6582 260.601 62.0991 258.248 66.1598Z" fill="#D3766A"/>
<path d="M252.365 118.966C252.022 121.531 250.281 126.695 248.983 127.483C247.686 128.27 240.881 128.101 237.451 128.101C234.02 128.101 233.345 127.145 233.402 125.964C233.458 124.783 240.656 124.558 240.656 124.558C240.656 124.558 231.043 127.314 228.624 127.764C226.206 128.214 220.635 129.62 219.829 127.614C219.465 126.71 220.991 125.796 220.991 125.796C220.991 125.796 218.653 126.478 218.281 125.316C217.858 123.993 219.716 123.265 219.716 123.265C219.716 123.265 218.255 123.56 218.222 122.482C218.147 120.073 227.289 118.889 227.289 118.889C227.289 118.889 220.289 122.297 220.064 120.331C219.753 117.61 234.1 114.626 235.594 113.44C237.088 112.253 238.634 110.486 238.634 110.486L252.365 118.966Z" fill="#D3766A"/>
<path d="M233.454 126.562C233.412 126.203 233.532 125.867 233.78 125.644C234.016 125.414 234.307 125.244 234.616 125.102C235.234 124.82 235.906 124.631 236.581 124.464C237.933 124.12 239.319 123.878 240.699 123.521C239.275 123.5 237.855 123.658 236.463 123.998C235.772 124.179 235.077 124.395 234.442 124.771C234.125 124.955 233.823 125.191 233.598 125.496C233.374 125.805 233.301 126.233 233.454 126.562Z" fill="#263238"/>
<path d="M220.992 125.795C221.981 125.554 222.956 125.274 223.929 124.993C224.904 124.716 225.87 124.413 226.839 124.121L229.734 123.214C230.7 122.911 231.665 122.611 232.64 122.32C231.625 122.415 230.627 122.627 229.637 122.856C228.645 123.082 227.668 123.367 226.697 123.661C225.728 123.966 224.764 124.282 223.814 124.642C222.862 124.998 221.916 125.366 220.992 125.795Z" fill="#263238"/>
<path d="M230.319 119.92C229.384 119.969 228.461 120.12 227.545 120.303C226.627 120.481 225.724 120.726 224.832 121.002C223.941 121.285 223.059 121.599 222.206 121.983C221.348 122.351 220.514 122.78 219.717 123.265C220.601 122.96 221.462 122.621 222.341 122.328C223.216 122.029 224.091 121.732 224.975 121.461C225.854 121.177 226.743 120.923 227.632 120.661C228.523 120.405 229.417 120.164 230.319 119.92Z" fill="#263238"/>
<path d="M228.904 117.625C227.394 117.715 225.917 118.079 224.489 118.557C223.064 119.046 221.678 119.677 220.428 120.525C221.849 120.018 223.232 119.483 224.644 119.012C226.051 118.526 227.469 118.086 228.904 117.625Z" fill="#263238"/>
<path d="M237.035 111.497L253.245 119.418C253.245 119.418 262.673 82.9288 263.722 71.1503C264.77 59.3718 260.24 62.0815 257.115 67.6133C252.843 75.1762 237.035 111.497 237.035 111.497Z" fill="#FFC727"/>
<path opacity="0.5" d="M237.035 111.497L253.245 119.418C253.245 119.418 262.673 82.9288 263.722 71.1503C264.77 59.3718 260.24 62.0815 257.115 67.6133C252.843 75.1762 237.035 111.497 237.035 111.497Z" fill="white"/>
<path d="M252.858 115.302C250.651 114.406 241.751 110.411 239.887 109.418C239.757 109.349 239.77 109.251 239.913 109.305C246.593 111.83 250.771 114.224 252.891 115.214C252.944 115.238 252.915 115.325 252.858 115.302Z" fill="#263238"/>
<path d="M258.904 96.1981C259.146 94.4618 259.448 92.738 259.758 91.0163C260.063 89.293 260.41 87.5785 260.758 85.8646C261.118 84.1533 261.48 82.442 261.884 80.7395L262.492 78.1863C262.715 77.3392 262.919 76.4885 263.158 75.6445C263.044 76.514 262.893 77.3756 262.761 78.2414L262.305 80.8263C262 82.5496 261.653 84.2635 261.305 85.978C260.943 87.6893 260.582 89.4006 260.177 91.1031C259.779 92.8066 259.372 94.5086 258.904 96.1981Z" fill="#263238"/>
<path d="M262.234 80.1062C262.352 79.6481 262.544 79.2285 262.753 78.8182C262.971 78.4131 263.208 78.0169 263.519 77.6602C263.402 78.1188 263.21 78.5384 263 78.9482C262.781 79.3533 262.545 79.749 262.234 80.1062Z" fill="#263238"/>
<path d="M269.557 69.5342C269.557 69.5342 263.78 64.3306 260.6 64.2578L257.771 66.4938C257.771 66.4938 256.87 66.733 256.629 66.1568C256.032 64.7325 256.089 61.3738 259.097 59.364C261.85 57.5238 267.245 58.2419 270.797 59.3989C274.207 60.5101 275.998 62.6582 274.806 64.8558C273.613 67.0533 269.557 69.5342 269.557 69.5342Z" fill="#FFC727"/>
<path opacity="0.5" d="M269.557 69.5342C269.557 69.5342 263.78 64.3306 260.6 64.2578L257.771 66.4938C257.771 66.4938 256.87 66.733 256.629 66.1568C256.032 64.7325 256.089 61.3738 259.097 59.364C261.85 57.5238 267.245 58.2419 270.797 59.3989C274.207 60.5101 275.998 62.6582 274.806 64.8558C273.613 67.0533 269.557 69.5342 269.557 69.5342Z" fill="white"/>
<path opacity="0.1" d="M269.965 68.4918C269.965 68.4918 272.944 65.7524 273.451 64.0921C273.957 62.4317 270.684 60.6341 268.545 59.8796C265.236 58.7122 262.932 58.7969 260.943 60.4843C258.954 62.1722 269.965 68.4918 269.965 68.4918Z" fill="black"/>
<path d="M264.621 64.4489C264.736 65.0293 267.558 67.739 270.193 67.7031C271.052 67.6901 270.991 64.1208 270.991 64.1208L271.081 63.7771L272.327 58.9635L266.752 55.1186L265.945 54.6074C265.945 54.6074 265.691 55.9469 265.392 57.6177C265.377 57.6952 265.363 57.7727 265.349 57.8559C265.329 57.95 265.31 58.0384 265.296 58.1273C265.248 58.3764 265.2 58.6307 265.158 58.8855C265.125 59.0789 265.092 59.2671 265.064 59.4715C265.031 59.6764 265.004 59.875 264.971 60.0799C264.692 62.1022 264.575 64.203 264.621 64.4489Z" fill="#D3766A"/>
<path d="M265.393 57.6177C266.653 61.5234 269.684 63.1999 271.082 63.7771L272.328 58.9635L266.753 55.1186L265.946 54.6074C265.946 54.6074 265.692 55.9469 265.393 57.6177Z" fill="#263238"/>
<path d="M278.32 49.962C280.96 58.2789 276.277 60.7994 274.483 61.3667C272.854 61.8815 267.243 63.428 263.758 55.4283C260.273 47.4286 263.305 43.5718 266.968 42.1969C270.631 40.8225 275.68 41.6452 278.32 49.962Z" fill="#D3766A"/>
<path d="M275.865 50.0483C275.662 50.0852 275.468 50.0852 275.264 50.1008C275.034 50.1185 274.852 50.1564 274.642 50.0373C274.529 49.9739 274.481 49.7898 274.532 49.6749C274.652 49.4066 274.929 49.3145 275.206 49.2823C275.506 49.2469 275.746 49.2963 276.001 49.4586C276.248 49.6151 276.132 49.9994 275.865 50.0483Z" fill="#263238"/>
<path d="M269.973 51.4692C270.162 51.3865 270.323 51.2794 270.502 51.1785C270.703 51.0646 270.875 50.9949 270.984 50.7797C271.042 50.6642 270.98 50.4843 270.873 50.4172C270.624 50.2607 270.342 50.3387 270.094 50.4656C269.825 50.6034 269.653 50.7786 269.532 51.0547C269.414 51.3231 269.724 51.5779 269.973 51.4692Z" fill="#263238"/>
<path d="M271.693 52.7013C271.682 52.681 271.658 52.7424 271.666 52.7653C271.87 53.3232 272.01 53.9972 271.561 54.3528C271.547 54.3638 271.558 54.3918 271.576 54.3825C272.17 54.0902 271.976 53.1974 271.693 52.7013Z" fill="#263238"/>
<path d="M270.994 52.2778C270.064 52.5082 270.593 54.3516 271.455 54.1384C272.303 53.9283 271.774 52.0849 270.994 52.2778Z" fill="#263238"/>
<path d="M270.66 52.4805C270.529 52.6307 270.424 52.8601 270.235 52.9349C270.017 53.0218 269.792 52.8772 269.592 52.7337C269.571 52.7186 269.56 52.7394 269.566 52.7639C269.662 53.1185 269.902 53.4419 270.296 53.3858C270.656 53.3348 270.814 52.9511 270.8 52.5704C270.798 52.5002 270.712 52.4196 270.66 52.4805Z" fill="#263238"/>
<path d="M275.072 51.6907C275.071 51.6678 275.125 51.7053 275.131 51.7292C275.272 52.3064 275.531 52.9439 276.101 52.9897C276.119 52.9912 276.125 53.0204 276.106 53.023C275.449 53.1103 275.113 52.2606 275.072 51.6907Z" fill="#263238"/>
<path d="M275.417 50.951C276.319 50.6245 276.905 52.4507 276.071 52.7534C275.249 53.0508 274.662 51.2246 275.417 50.951Z" fill="#263238"/>
<path d="M275.838 50.9497C276.013 51.0002 276.212 51.1302 276.389 51.0865C276.593 51.0355 276.677 50.7901 276.744 50.5603C276.751 50.5363 276.77 50.5473 276.779 50.5712C276.9 50.917 276.901 51.3179 276.588 51.4921C276.301 51.6517 275.981 51.424 275.786 51.1031C275.75 51.0433 275.767 50.9295 275.838 50.9497Z" fill="#263238"/>
<path d="M272.946 57.1842C273.106 57.3028 273.273 57.4728 273.489 57.4614C273.696 57.4505 273.923 57.3246 274.101 57.2258C274.119 57.2159 274.14 57.2331 274.131 57.2523C274.009 57.4993 273.707 57.6855 273.428 57.6751C273.155 57.6652 272.991 57.4531 272.893 57.2185C272.88 57.1858 272.923 57.1671 272.946 57.1842Z" fill="#263238"/>
<path d="M274.967 54.5963C274.967 54.5963 275.259 55.4434 275.34 55.8542C275.348 55.8927 275.252 55.9306 275.114 55.966C275.108 55.9696 275.105 55.9727 275.098 55.9696C274.395 56.2255 273.615 56.1194 273.058 55.6139C273.022 55.5796 273.066 55.5266 273.108 55.5453C273.728 55.836 274.347 55.8209 274.992 55.7049C274.999 55.5853 274.444 54.2713 274.508 54.2536C274.729 54.1902 275.201 54.2557 275.482 54.2812C274.925 52.4997 274.087 50.8211 273.559 49.0385C273.542 48.9746 273.631 48.9366 273.661 48.9907C274.664 50.6874 275.35 52.7238 275.972 54.549C276.052 54.7757 275.146 54.6337 274.967 54.5963Z" fill="#263238"/>
<path d="M275.043 55.8214C275.043 55.8214 274.787 56.4552 274.298 56.7875C274.118 56.9108 273.911 56.9945 273.671 56.9929C273.178 56.9914 273.057 56.5717 273.048 56.188C273.039 55.8723 273.11 55.5801 273.11 55.5801C273.11 55.5801 273.947 56.0351 275.043 55.8214Z" fill="#263238"/>
<path d="M274.297 56.7874C274.117 56.9107 273.91 56.9944 273.67 56.9928C273.177 56.9913 273.056 56.5716 273.047 56.1879C273.554 56.1099 274.13 56.3184 274.297 56.7874Z" fill="#FF9ABB"/>
<path d="M263.235 55.4775C264.727 55.375 264.612 52.2332 264.612 52.2332C264.612 52.2332 267.61 51.8021 267.966 47.3473C267.966 47.3473 268.196 49.3628 267.163 51.1058C267.163 51.1058 272.365 49.7694 273.941 45.0203C273.941 45.0203 273.384 47.4029 272.669 48.3264C272.669 48.3264 274.795 47.3826 275.611 45.4243C275.611 45.4243 276.911 47.8408 277.727 48.4414C277.727 48.4414 276.152 39.227 267.73 41.4687C267.73 41.4687 262.419 42.6122 261.116 47.1408C259.813 51.6685 263.235 55.4775 263.235 55.4775Z" fill="#263238"/>
<path d="M265.296 54.8629C265.296 54.8629 262.841 52.6222 261.784 53.5556C260.726 54.489 262.988 58.0276 264.522 58.2372C266.056 58.4462 266.278 57.0303 266.278 57.0303L265.296 54.8629Z" fill="#D3766A"/>
<path d="M262.458 54.5531C262.434 54.5562 262.437 54.589 262.459 54.5926C263.542 54.772 264.271 55.5749 264.851 56.4474C264.474 56.1464 264.027 56.0351 263.613 56.4968C263.591 56.5213 263.625 56.5561 263.652 56.5436C264.039 56.3653 264.349 56.37 264.697 56.6341C264.943 56.8208 265.141 57.0829 265.34 57.3174C265.407 57.3959 265.556 57.3122 265.499 57.2176C265.495 57.2108 265.491 57.2035 265.486 57.1962C265.227 55.9259 263.845 54.3752 262.458 54.5531Z" fill="#263238"/>
<path d="M269.964 68.4927C269.964 68.4927 265.264 61.4889 260.398 60.5508L260.6 64.2584C260.6 64.2584 264.68 64.5657 269.556 69.5348L269.964 68.4927Z" fill="#FFC727"/>
<path opacity="0.5" d="M269.964 68.4927C269.964 68.4927 265.264 61.4889 260.398 60.5508L260.6 64.2584C260.6 64.2584 264.68 64.5657 269.556 69.5348L269.964 68.4927Z" fill="white"/>
<path d="M259.275 64.2484C260.18 64.1886 261.06 64.4382 261.887 64.7522C265.203 65.7408 268.471 68.7079 268.471 68.7079L269.404 69.672L269.51 69.7801L269.637 69.724C271.336 68.9242 273.111 66.942 273.445 66.5509C272.114 67.7729 269.945 69.1546 269.479 69.3433L269.711 69.3953L268.777 68.4016C268.453 68.0828 264.838 65.3908 261.971 64.5156C261.755 64.4408 261.531 64.3893 261.31 64.3316C261.085 64.29 260.861 64.2432 260.634 64.2198C260.183 64.1626 259.718 64.1506 259.275 64.2484Z" fill="#263238"/>
<path d="M257.771 66.4933C258.297 66.1881 258.78 65.8313 259.255 65.4621C259.724 65.0867 260.184 64.6983 260.601 64.2578C260.076 64.5625 259.592 64.9193 259.118 65.289C258.649 65.6649 258.19 66.0529 257.771 66.4933Z" fill="#263238"/>
<path d="M268.772 67.4336C268.772 67.4336 268.105 69.2593 267.669 71.9737C267.496 73.048 267.373 76.9714 268.59 76.9985C269.807 77.0255 268.203 74.2591 268.145 72.1729C268.085 70.0549 268.839 68.6691 269.081 67.4585L268.772 67.4336Z" fill="#FFC727"/>
<g opacity="0.1">
<path d="M268.772 67.4336C268.772 67.4336 268.105 69.2593 267.669 71.9737C267.496 73.048 267.373 76.9714 268.59 76.9985C269.807 77.0255 268.203 74.2591 268.145 72.1729C268.085 70.0549 268.839 68.6691 269.081 67.4585L268.772 67.4336Z" fill="black"/>
</g>
<path d="M271.749 67.7637C271.749 67.7637 272.312 69.4464 272.644 71.9351C272.775 72.9205 272.792 76.5049 271.68 76.4997C270.568 76.4945 272.1 74.0084 272.205 72.1052C272.312 70.1734 271.658 68.89 271.466 67.7788L271.749 67.7637Z" fill="#FFC727"/>
<g opacity="0.1">
<path d="M271.749 67.7637C271.749 67.7637 272.312 69.4464 272.644 71.9351C272.775 72.9205 272.792 76.5049 271.68 76.4997C270.568 76.4945 272.1 74.0084 272.205 72.1052C272.312 70.1734 271.658 68.89 271.466 67.7788L271.749 67.7637Z" fill="black"/>
</g>
</svg>
