<svg width="25" height="24" viewBox="0 0 25 24" fill="none" xmlns="http://www.w3.org/2000/svg">
<path d="M9.5 17.25C9.08579 17.25 8.75 17.5858 8.75 18C8.75 18.4142 9.08579 18.75 9.5 18.75H15.5C15.9142 18.75 16.25 18.4142 16.25 18C16.25 17.5858 15.9142 17.25 15.5 17.25H9.5Z" fill="#BDBDBD"/>
<path fill-rule="evenodd" clip-rule="evenodd" d="M12.5 1.25C11.7919 1.25 11.1485 1.45282 10.4506 1.79224C9.77585 2.12035 8.99642 2.60409 8.02286 3.20832L5.95628 4.4909C5.03509 5.06261 4.29744 5.5204 3.7289 5.95581C3.14015 6.40669 2.68795 6.86589 2.36131 7.46263C2.03535 8.05812 1.88857 8.69174 1.81819 9.4407C1.74999 10.1665 1.74999 11.0541 1.75 12.1672V13.7799C1.74999 15.6837 1.74998 17.1866 1.9027 18.3616C2.05937 19.567 2.38856 20.5401 3.13236 21.3094C3.87958 22.0824 4.83046 22.4277 6.00761 22.5914C7.14849 22.75 8.60556 22.75 10.4418 22.75H14.5581C16.3944 22.75 17.8515 22.75 18.9924 22.5914C20.1695 22.4277 21.1204 22.0824 21.8676 21.3094C22.6114 20.5401 22.9406 19.567 23.0973 18.3616C23.25 17.1866 23.25 15.6838 23.25 13.7799V12.1672C23.25 11.0541 23.25 10.1665 23.1818 9.4407C23.1114 8.69174 22.9646 8.05812 22.6387 7.46263C22.3121 6.86589 21.8599 6.40669 21.2711 5.95581C20.7026 5.5204 19.9649 5.06262 19.0437 4.49091L16.9771 3.20831C16.0036 2.60409 15.2241 2.12034 14.5494 1.79224C13.8515 1.45282 13.2081 1.25 12.5 1.25ZM8.77953 4.50412C9.79529 3.87371 10.5095 3.43153 11.1065 3.1412C11.6882 2.85833 12.1002 2.75 12.5 2.75C12.8998 2.75 13.3118 2.85833 13.8935 3.14119C14.4905 3.43153 15.2047 3.87371 16.2205 4.50412L18.2205 5.74537C19.1813 6.34169 19.8559 6.76135 20.3591 7.1467C20.8487 7.52164 21.1303 7.83106 21.3229 8.18285C21.5162 8.53589 21.629 8.94865 21.6884 9.58104C21.7492 10.2286 21.75 11.0458 21.75 12.2039V13.725C21.75 15.6959 21.7485 17.1012 21.6098 18.1683C21.4736 19.2163 21.217 19.8244 20.7892 20.2669C20.3649 20.7058 19.7871 20.9664 18.7858 21.1057C17.7602 21.2483 16.4075 21.25 14.5 21.25H10.5C8.59247 21.25 7.23983 21.2483 6.21422 21.1057C5.21286 20.9664 4.63514 20.7058 4.21079 20.2669C3.78301 19.8244 3.52642 19.2163 3.39019 18.1683C3.25149 17.1012 3.25 15.6959 3.25 13.725V12.2039C3.25 11.0458 3.25076 10.2286 3.31161 9.58104C3.37103 8.94865 3.48385 8.53589 3.67709 8.18285C3.86965 7.83106 4.15133 7.52164 4.64092 7.1467C5.1441 6.76135 5.81869 6.34169 6.77953 5.74537L8.77953 4.50412Z" fill="#BDBDBD"/>
</svg>
