<svg width="29" height="14" viewBox="0 0 29 14" fill="none" xmlns="http://www.w3.org/2000/svg">
<path d="M6.99285 7.99707C5.36273 7.99707 4.04297 9.31775 4.04297 10.9479C4.04297 12.578 5.36365 13.8987 6.99285 13.8987C8.62114 13.8987 9.94274 12.578 9.94274 10.9479C9.94274 9.31775 8.62114 7.99707 6.99285 7.99707ZM6.99285 11.8394C6.50289 11.8394 6.10135 11.4397 6.10135 10.9488C6.10135 10.4579 6.50289 10.0582 6.99285 10.0582C7.48189 10.0582 7.88251 10.4579 7.88251 10.9488C7.88251 11.4397 7.48281 11.8394 6.99285 11.8394Z" fill="black"/>
<path d="M28.472 8.53007L27.9894 4.60488C27.8945 3.85152 27.236 3.29893 26.4762 3.34038L25.4189 3.39932L22.1366 0.442068C21.8197 0.157486 21.4118 0.000921348 20.9863 0.000921348L14.3175 0C12.8209 0 11.3694 0.511141 10.2026 1.44869L6.48182 4.43818L1.47817 5.68886C0.835325 5.84911 0.384047 6.42749 0.384047 7.08967V8.53191C0.172222 8.53099 0 8.7023 0 8.91412V10.8215C0 11.0931 0.220113 11.3133 0.491801 11.3133H3.31643C3.30446 11.1908 3.27959 11.0738 3.27959 10.9486C3.27959 8.89754 4.94103 7.23794 6.99112 7.23794C9.04121 7.23794 10.7017 8.89754 10.7017 10.9486C10.7017 11.0747 10.6759 11.1917 10.664 11.3133H18.4858C18.4748 11.1908 18.4499 11.0738 18.4499 10.9486C18.4499 8.89754 20.1113 7.23794 22.1605 7.23794C24.2115 7.23794 25.8702 8.89754 25.8702 10.9486C25.8702 11.0747 25.8463 11.1917 25.8334 11.3133H28.4683C28.74 11.3133 28.9591 11.0931 28.9591 10.8215V9.02279C28.9638 8.75203 28.7436 8.53007 28.472 8.53007ZM18.5742 3.70692L9.27054 4.17754L11.0517 2.74543C12.0196 1.9672 13.2224 1.54355 14.4648 1.54355H18.5742V3.70692ZM20.1196 3.62864V1.54448H20.7247C20.9347 1.54448 21.1364 1.62184 21.292 1.76275L23.1911 3.47208L20.1196 3.62864Z" fill="black"/>
<path d="M22.1628 7.99707C20.5326 7.99707 19.2129 9.31775 19.2129 10.9479C19.2129 12.578 20.5336 13.8987 22.1628 13.8987C23.792 13.8987 25.1127 12.578 25.1127 10.9479C25.1127 9.31775 23.792 7.99707 22.1628 7.99707ZM22.1628 11.8394C21.6719 11.8394 21.2722 11.4397 21.2722 10.9488C21.2722 10.4579 21.6719 10.0582 22.1628 10.0582C22.6518 10.0582 23.0534 10.4579 23.0534 10.9488C23.0534 11.4397 22.6527 11.8394 22.1628 11.8394Z" fill="black"/>
</svg>
