<svg width="56" height="38" viewBox="0 0 56 38" fill="none" xmlns="http://www.w3.org/2000/svg">
<g filter="url(#filter0_d_3052_3773)">
<rect x="4" y="3" width="48" height="30" rx="8" fill="white" shape-rendering="crispEdges"/>
<path fill-rule="evenodd" clip-rule="evenodd" d="M23.6464 11.555C24.9458 10.295 27.1386 10.3908 28.0434 11.9629L28.5454 12.835C29.1362 13.8617 28.8844 15.157 28.0195 16.006C28.008 16.0213 27.9469 16.1075 27.9393 16.2581C27.9296 16.4503 28 16.8949 28.7104 17.5837C29.4205 18.2723 29.8789 18.3408 30.0772 18.3314C30.2327 18.3241 30.3216 18.2648 30.3374 18.2536C31.213 17.4149 32.5487 17.1708 33.6074 17.7437L34.5069 18.2305C36.1281 19.1078 36.2269 21.2342 34.9275 22.4942C34.2324 23.1682 33.3082 23.7671 32.2221 23.807C30.6127 23.8662 27.9403 23.4632 25.2937 20.8968C22.6472 18.3305 22.2316 15.7391 22.2926 14.1784C22.3337 13.1252 22.9513 12.229 23.6464 11.555ZM27.0303 12.5111C26.567 11.7061 25.322 11.5211 24.4667 12.3505C23.8671 12.932 23.4772 13.5739 23.4519 14.221C23.401 15.5225 23.7324 17.7918 26.1141 20.1013C28.4958 22.4108 30.836 22.7322 32.1782 22.6828C32.8455 22.6583 33.5074 22.2803 34.1071 21.6987C34.9624 20.8694 34.7717 19.6621 33.9415 19.2128L33.042 18.7261C32.4825 18.4233 31.6966 18.5266 31.1449 19.0615L31.1448 19.0617C31.0906 19.1142 30.7457 19.4262 30.1336 19.4551C29.5069 19.4846 28.7484 19.2116 27.89 18.3792C27.0313 17.5466 26.7499 16.8108 26.7806 16.203C26.8105 15.6094 27.1324 15.2752 27.1863 15.223L27.1863 15.2229C27.738 14.688 27.8446 13.9259 27.5323 13.3833L27.0303 12.5111Z" fill="#6385FF"/>
</g>
<defs>
<filter id="filter0_d_3052_3773" x="0" y="0" width="56" height="38" filterUnits="userSpaceOnUse" color-interpolation-filters="sRGB">
<feFlood flood-opacity="0" result="BackgroundImageFix"/>
<feColorMatrix in="SourceAlpha" type="matrix" values="0 0 0 0 0 0 0 0 0 0 0 0 0 0 0 0 0 0 127 0" result="hardAlpha"/>
<feOffset dy="1"/>
<feGaussianBlur stdDeviation="2"/>
<feComposite in2="hardAlpha" operator="out"/>
<feColorMatrix type="matrix" values="0 0 0 0 0.636898 0 0 0 0 0.636898 0 0 0 0 0.636898 0 0 0 0.25 0"/>
<feBlend mode="normal" in2="BackgroundImageFix" result="effect1_dropShadow_3052_3773"/>
<feBlend mode="normal" in="SourceGraphic" in2="effect1_dropShadow_3052_3773" result="shape"/>
</filter>
</defs>
</svg>
