<svg width="14" height="14" viewBox="0 0 14 14" fill="none" xmlns="http://www.w3.org/2000/svg">
<path fill-rule="evenodd" clip-rule="evenodd" d="M1.64639 1.55502C2.94581 0.294971 5.13862 0.390759 6.0434 1.96285L6.54537 2.83505C7.13621 3.86166 6.88443 5.15697 6.01949 6.00595C6.00797 6.02126 5.94692 6.10745 5.93932 6.25807C5.92961 6.45031 6.00002 6.89489 6.71037 7.58371C7.42048 8.27231 7.8789 8.34075 8.07723 8.3314C8.23267 8.32406 8.32164 8.26483 8.33744 8.25364C9.21295 7.41492 10.5487 7.17077 11.6074 7.74371L12.5069 8.23047C14.1281 9.10783 14.2269 11.2342 12.9275 12.4942C12.2324 13.1682 11.3082 13.7671 10.2221 13.807C8.61267 13.8662 5.94026 13.4632 3.29373 10.8968C0.647194 8.33048 0.231559 5.73905 0.292573 4.17835C0.333746 3.1252 0.951331 2.22902 1.64639 1.55502ZM5.03033 2.5111C4.56703 1.70609 3.32203 1.52114 2.46674 2.35052C1.86706 2.93203 1.47719 3.57389 1.4519 4.22097C1.40101 5.52248 1.73239 7.79179 4.11408 10.1013C6.49578 12.4108 8.83601 12.7322 10.1782 12.6828C10.8455 12.6583 11.5074 12.2803 12.1071 11.6987C12.9624 10.8694 12.7717 9.6621 11.9415 9.21284L11.042 8.72608C10.4825 8.42329 9.69663 8.52657 9.14492 9.06154L9.14475 9.06171C9.09056 9.11422 8.74575 9.42619 8.1336 9.45507C7.50694 9.48463 6.74841 9.21159 5.89001 8.37921C5.03134 7.54655 4.74986 6.8108 4.78055 6.20305C4.81052 5.60941 5.13245 5.27521 5.18631 5.22297L5.18634 5.22295C5.73804 4.68796 5.84456 3.92585 5.5323 3.38329L5.03033 2.5111Z" fill="#6385FF"/>
</svg>
