<svg width="22" height="24" viewBox="0 0 22 24" fill="none" xmlns="http://www.w3.org/2000/svg">
<path fill-rule="evenodd" clip-rule="evenodd" d="M1.40589 1.40589C0 2.81178 0 5.07452 0 9.6V14.4C0 18.9255 0 21.1882 1.40589 22.5941C2.81178 24 5.07452 24 9.6 24H12C16.5255 24 18.7882 24 20.1941 22.5941C21.6 21.1882 21.6 18.9255 21.6 14.4V9.6C21.6 5.07452 21.6 2.81178 20.1941 1.40589C18.7882 0 16.5255 0 12 0H9.6C5.07452 0 2.81178 0 1.40589 1.40589ZM6 8.7C5.50294 8.7 5.1 9.10294 5.1 9.6C5.1 10.0971 5.50294 10.5 6 10.5H15.6C16.0971 10.5 16.5 10.0971 16.5 9.6C16.5 9.10294 16.0971 8.7 15.6 8.7H6ZM6 13.5C5.50294 13.5 5.1 13.9029 5.1 14.4C5.1 14.8971 5.50294 15.3 6 15.3H12C12.4971 15.3 12.9 14.8971 12.9 14.4C12.9 13.9029 12.4971 13.5 12 13.5H6Z" fill="black"/>
</svg>
