<svg width="23" height="24" viewBox="0 0 23 24" fill="none" xmlns="http://www.w3.org/2000/svg">
<path fill-rule="evenodd" clip-rule="evenodd" d="M10.3207 3.59013e-07H12.6792C14.7306 -1.73394e-05 16.3555 -3.1438e-05 17.6272 0.170942C18.936 0.346899 19.9953 0.717634 20.8306 1.55302C21.666 2.3884 22.0368 3.44769 22.2127 4.75644C22.3837 6.02812 22.3837 7.65302 22.3837 9.70447V14.2955C22.3837 16.347 22.3837 17.9719 22.2127 19.2436C22.0368 20.5523 21.666 21.6116 20.8306 22.447C19.9953 23.2824 18.936 23.6531 17.6272 23.8291C16.3555 24 14.7306 24 12.6792 24H10.3207C8.26923 24 6.64433 24 5.37265 23.8291C4.0639 23.6531 3.00461 23.2824 2.16923 22.447C1.33384 21.6116 0.963109 20.5523 0.787153 19.2436C0.616179 17.9719 0.616194 16.347 0.616211 14.2955V9.70446C0.616194 7.65301 0.616179 6.02812 0.787153 4.75644C0.963109 3.44769 1.33384 2.3884 2.16923 1.55302C3.00461 0.717634 4.0639 0.346899 5.37265 0.170942C6.64433 -3.1438e-05 8.26922 -1.73394e-05 10.3207 3.59013e-07ZM5.59576 1.83043C4.47269 1.98142 3.82564 2.26459 3.35322 2.73701C2.8808 3.20943 2.59763 3.85648 2.44664 4.97955C2.29241 6.12671 2.29063 7.6389 2.29063 9.76744V14.2326C2.29063 16.3611 2.29241 17.8733 2.44664 19.0204C2.59763 20.1435 2.8808 20.7906 3.35322 21.263C3.82564 21.7354 4.47269 22.0186 5.59576 22.1696C6.74292 22.3238 8.25511 22.3256 10.3837 22.3256H12.6162C14.7448 22.3256 16.2569 22.3238 17.4041 22.1696C18.5272 22.0186 19.1742 21.7354 19.6466 21.263C20.1191 20.7906 20.4022 20.1435 20.5532 19.0204C20.7075 17.8733 20.7092 16.3611 20.7092 14.2326V9.76744C20.7092 7.6389 20.7075 6.12671 20.5532 4.97955C20.4022 3.85648 20.1191 3.20943 19.6466 2.73701C19.1742 2.26459 18.5272 1.98142 17.4041 1.83043C16.2569 1.6762 14.7448 1.67442 12.6162 1.67442H10.3837C8.25511 1.67442 6.74292 1.6762 5.59576 1.83043ZM6.19761 9.76744C6.19761 9.30506 6.57244 8.93023 7.03482 8.93023H15.965C16.4274 8.93023 16.8023 9.30506 16.8023 9.76744C16.8023 10.2298 16.4274 10.6047 15.965 10.6047H7.03482C6.57244 10.6047 6.19761 10.2298 6.19761 9.76744ZM6.19761 14.2326C6.19761 13.7702 6.57244 13.3953 7.03482 13.3953H12.6162C13.0786 13.3953 13.4534 13.7702 13.4534 14.2326C13.4534 14.6949 13.0786 15.0698 12.6162 15.0698H7.03482C6.57244 15.0698 6.19761 14.6949 6.19761 14.2326Z" fill="#BDBDBD"/>
</svg>
