<svg width="56" height="38" viewBox="0 0 56 38" fill="none" xmlns="http://www.w3.org/2000/svg">
<g filter="url(#filter0_d_3040_1934)">
<rect x="4" y="3" width="48" height="30" rx="8" fill="white" shape-rendering="crispEdges"/>
<path d="M33.601 12.326C32.8675 11.5857 31.9939 10.9988 31.0313 10.5995C30.0687 10.2001 29.0362 9.99636 27.994 10C23.627 10 20.068 13.558 20.064 17.926C20.064 19.325 20.43 20.686 21.121 21.891L20 26L24.204 24.898C25.367 25.531 26.6699 25.8627 27.994 25.863H27.998C32.366 25.863 35.924 22.305 35.928 17.933C35.929 16.8911 35.7238 15.8592 35.3243 14.8969C34.9247 13.9346 34.3397 13.0609 33.601 12.326ZM27.994 24.521C26.813 24.5214 25.6537 24.2036 24.638 23.601L24.398 23.457L21.904 24.111L22.57 21.6781L22.414 21.427C21.7538 20.3774 21.4046 19.1621 21.407 17.922C21.407 14.296 24.364 11.338 27.998 11.338C28.8637 11.3365 29.7212 11.5063 30.521 11.8377C31.3208 12.1692 32.0471 12.6556 32.658 13.269C33.271 13.8801 33.757 14.6065 34.0879 15.4063C34.4188 16.2061 34.5881 17.0635 34.586 17.929C34.582 21.568 31.625 24.521 27.994 24.521ZM31.609 19.587C31.412 19.488 30.439 19.009 30.256 18.941C30.074 18.876 29.941 18.842 29.811 19.04C29.678 19.237 29.298 19.686 29.184 19.815C29.07 19.948 28.952 19.963 28.754 19.865C28.557 19.765 27.918 19.557 27.162 18.88C26.572 18.3551 26.177 17.705 26.059 17.508C25.945 17.31 26.048 17.204 26.147 17.105C26.234 17.017 26.344 16.873 26.443 16.759C26.543 16.645 26.576 16.561 26.641 16.429C26.706 16.295 26.675 16.181 26.626 16.082C26.576 15.983 26.181 15.006 26.014 14.612C25.854 14.223 25.691 14.277 25.569 14.272C25.455 14.265 25.322 14.265 25.189 14.265C25.0886 14.2675 24.9897 14.2908 24.8987 14.3333C24.8077 14.3758 24.7264 14.4366 24.66 14.512C24.478 14.71 23.969 15.189 23.969 16.166C23.969 17.143 24.679 18.082 24.779 18.215C24.877 18.3481 26.173 20.347 28.162 21.207C28.632 21.412 29.002 21.533 29.291 21.625C29.766 21.7771 30.195 21.754 30.537 21.705C30.917 21.647 31.708 21.225 31.875 20.762C32.039 20.298 32.039 19.9021 31.989 19.819C31.94 19.7351 31.807 19.686 31.609 19.587Z" fill="#3FB33C"/>
</g>
<defs>
<filter id="filter0_d_3040_1934" x="0" y="0" width="56" height="38" filterUnits="userSpaceOnUse" color-interpolation-filters="sRGB">
<feFlood flood-opacity="0" result="BackgroundImageFix"/>
<feColorMatrix in="SourceAlpha" type="matrix" values="0 0 0 0 0 0 0 0 0 0 0 0 0 0 0 0 0 0 127 0" result="hardAlpha"/>
<feOffset dy="1"/>
<feGaussianBlur stdDeviation="2"/>
<feComposite in2="hardAlpha" operator="out"/>
<feColorMatrix type="matrix" values="0 0 0 0 0.636898 0 0 0 0 0.636898 0 0 0 0 0.636898 0 0 0 0.25 0"/>
<feBlend mode="normal" in2="BackgroundImageFix" result="effect1_dropShadow_3040_1934"/>
<feBlend mode="normal" in="SourceGraphic" in2="effect1_dropShadow_3040_1934" result="shape"/>
</filter>
</defs>
</svg>
